#N canvas 135 44 621 378 10;
#X obj 12 -28 r note;
#X obj 12 67 line~;
#X msg 12 47 1 \, 0 1500;
#X obj 12 134 *~;
#X obj 84 67 line~;
#X msg 84 47 1 \, 0 1500;
#X obj 84 134 *~;
#X obj 155 67 line~;
#X msg 155 47 1 \, 0 1500;
#X obj 155 134 *~;
#X obj 227 67 line~;
#X msg 227 47 1 \, 0 1500;
#X obj 227 134 *~;
#X obj 299 67 line~;
#X msg 299 47 1 \, 0 1500;
#X obj 299 134 *~;
#X obj 371 67 line~;
#X msg 371 47 1 \, 0 1500;
#X obj 371 134 *~;
#X obj 442 67 line~;
#X msg 442 47 1 \, 0 1500;
#X obj 442 134 *~;
#X obj 514 67 line~;
#X msg 514 47 1 \, 0 1500;
#X obj 514 137 *~;
#X obj 443 161 +~;
#X obj 371 161 +~;
#X obj 300 161 +~;
#X obj 228 161 +~;
#X obj 155 161 +~;
#X obj 84 161 +~;
#X obj 12 161 +~;
#X obj 12 226 dac~;
#X obj 26 114 osc~ 440;
#X obj 98 114 osc~ 494;
#X obj 169 114 osc~ 523;
#X obj 241 114 osc~ 587;
#X obj 313 114 osc~ 659;
#X obj 385 114 osc~ 698;
#X obj 456 113 osc~ 784;
#X obj 528 114 osc~ 880;
#X obj 73 186 loadbang;
#X obj 74 225 print;
#X obj 12 23 sel 1;
#X obj 12 -5 t f f f f f f f f f;
#X obj 84 21 sel 2;
#X obj 155 23 sel 3;
#X obj 227 23 sel 4;
#X obj 299 23 sel 5;
#X obj 371 21 sel 6;
#X obj 442 22 sel 7;
#X obj 514 22 sel 8;
#X obj 12 94 *~;
#X obj 84 94 *~;
#X obj 155 94 *~;
#X obj 227 94 *~;
#X obj 299 94 *~;
#X obj 371 94 *~;
#X obj 442 94 *~;
#X obj 514 97 *~;
#X msg 74 205 Click a square to play a note.;
#X obj 12 202 *~ 0.1;
#X connect 0 0 44 0;
#X connect 1 0 52 1;
#X connect 1 0 52 0;
#X connect 2 0 1 0;
#X connect 3 0 31 0;
#X connect 4 0 53 0;
#X connect 4 0 53 1;
#X connect 5 0 4 0;
#X connect 6 0 30 0;
#X connect 7 0 54 0;
#X connect 7 0 54 1;
#X connect 8 0 7 0;
#X connect 9 0 29 0;
#X connect 10 0 55 0;
#X connect 10 0 55 1;
#X connect 11 0 10 0;
#X connect 12 0 28 0;
#X connect 13 0 56 0;
#X connect 13 0 56 1;
#X connect 14 0 13 0;
#X connect 15 0 27 0;
#X connect 16 0 57 0;
#X connect 16 0 57 1;
#X connect 17 0 16 0;
#X connect 18 0 26 0;
#X connect 19 0 58 0;
#X connect 19 0 58 1;
#X connect 20 0 19 0;
#X connect 21 0 25 0;
#X connect 22 0 59 0;
#X connect 22 0 59 1;
#X connect 23 0 22 0;
#X connect 24 0 25 1;
#X connect 25 0 26 1;
#X connect 26 0 27 1;
#X connect 27 0 28 1;
#X connect 28 0 29 1;
#X connect 29 0 30 1;
#X connect 30 0 31 1;
#X connect 31 0 61 0;
#X connect 33 0 3 1;
#X connect 34 0 6 1;
#X connect 35 0 9 1;
#X connect 36 0 12 1;
#X connect 37 0 15 1;
#X connect 38 0 18 1;
#X connect 39 0 21 1;
#X connect 40 0 24 1;
#X connect 41 0 60 0;
#X connect 43 0 2 0;
#X connect 44 0 43 0;
#X connect 44 1 45 0;
#X connect 44 2 46 0;
#X connect 44 3 47 0;
#X connect 44 4 48 0;
#X connect 44 5 49 0;
#X connect 44 6 50 0;
#X connect 44 7 51 0;
#X connect 45 0 5 0;
#X connect 46 0 8 0;
#X connect 47 0 11 0;
#X connect 48 0 14 0;
#X connect 49 0 17 0;
#X connect 50 0 20 0;
#X connect 51 0 23 0;
#X connect 52 0 3 0;
#X connect 53 0 6 0;
#X connect 54 0 9 0;
#X connect 55 0 12 0;
#X connect 56 0 15 0;
#X connect 57 0 18 0;
#X connect 58 0 21 0;
#X connect 59 0 24 0;
#X connect 60 0 42 0;
#X connect 61 0 32 0;
#X connect 61 0 32 1;
