#N canvas 448 281 602 568 10;
#N canvas 224 46 961 852 16counter 0;
#X obj 318 440 + 1;
#X obj 267 436 float;
#X obj 272 622 mod 2;
#X obj 210 672 delay 0;
#X obj 260 651 *;
#X msg 206 296 1;
#X obj 218 321 /;
#X obj 209 273 t f f;
#X obj 228 344 * 15000;
#X obj 339 355 t b f;
#X obj 263 405 metro 125;
#X obj 182 578 *;
#X obj 268 596 t b f f;
#X obj 136 130 hsl 80 8 0 0.4 0 1 empty empty swing -33 4 0 10 #fcfcfc
#000000 #000000 0 1;
#X msg 340 329 -2;
#X obj 251 700 int;
#X obj 172 17 loadbang;
#X floatatom 126 113 5 30 300 0 bpm - - 0;
#X msg -2 85 set \$1;
#X msg 5 139 110;
#X obj 174 112 bng 15 250 50 0 empty empty empty 6 7 0 10 #fcc4c4 #000000
#000000;
#X obj 253 737 outlet;
#X obj 570 496 outlet;
#X text 618 497 bpm->;
#X obj 200 112 bng 15 50 20 0 empty empty empty 6 7 0 10 #c4fcc4 #000000
#000000;
#X obj 208 225 float;
#X obj 435 539 outlet;
#X text 144 343 1/16 in ms;
#X text 485 540 pos96->;
#X text 178 628 swing;
#X obj 259 373 / 6;
#X text 219 371 1/96;
#X obj 343 481 / 6;
#X obj 343 505 int;
#X obj 342 530 change;
#X text 304 738 pos16swing->;
#X obj 600 64 + 1;
#X obj 602 29 float;
#X obj 600 96 moses 2;
#X obj 600 155 timer;
#X obj 600 123 t b;
#X obj 648 122 t b b;
#X obj 653 243 /;
#X msg 623 221 60000;
#X obj 618 183 t b f;
#X obj 656 268 moses 10;
#X text 500 72 beatcounter;
#X obj 772 358 float;
#X obj 769 401 + 1;
#X obj 688 426 +;
#X obj 729 396 *;
#X obj 705 328 t f b;
#X obj 698 464 /;
#X msg 884 211 0;
#X text 499 302 mean (as seen on idafx blog);
#X obj 906 259 bng 15 250 50 0 empty empty empty 17 7 0 10 #fcfcfc
#000000 #000000;
#X obj 864 324 t f f;
#X obj 921 503 moses 0.1;
#X text 880 303 reset;
#X obj 870 366 /;
#X obj 849 431 < 0.75;
#X obj 903 435 > 1.25;
#X obj 869 391 t f f;
#X obj 877 471 ||;
#X obj 174 54 t b b b;
#X obj 43 -7 inlet;
#X obj 107 -11 inlet;
#X connect 0 0 1 1;
#X connect 0 0 32 0;
#X connect 0 0 26 0;
#X connect 1 0 0 0;
#X connect 2 0 4 0;
#X connect 3 0 15 0;
#X connect 4 0 3 1;
#X connect 5 0 6 0;
#X connect 6 0 8 0;
#X connect 7 0 5 0;
#X connect 7 1 6 1;
#X connect 8 0 11 1;
#X connect 8 0 30 0;
#X connect 9 0 10 0;
#X connect 9 1 1 0;
#X connect 10 0 1 0;
#X connect 11 0 4 1;
#X connect 12 0 3 0;
#X connect 12 1 2 0;
#X connect 12 2 15 1;
#X connect 13 0 11 0;
#X connect 14 0 9 0;
#X connect 15 0 21 0;
#X connect 16 0 64 0;
#X connect 17 0 18 0;
#X connect 17 0 25 1;
#X connect 18 0 19 0;
#X connect 19 0 17 0;
#X connect 20 0 14 0;
#X connect 20 0 25 0;
#X connect 24 0 37 0;
#X connect 25 0 7 0;
#X connect 25 0 22 0;
#X connect 30 0 10 1;
#X connect 32 0 33 0;
#X connect 33 0 34 0;
#X connect 34 0 12 0;
#X connect 36 0 37 1;
#X connect 36 0 38 0;
#X connect 37 0 36 0;
#X connect 38 0 40 0;
#X connect 38 1 41 0;
#X connect 39 0 44 0;
#X connect 39 0 56 0;
#X connect 40 0 39 0;
#X connect 41 0 39 0;
#X connect 41 1 39 1;
#X connect 42 0 45 0;
#X connect 43 0 42 0;
#X connect 44 0 43 0;
#X connect 44 1 42 1;
#X connect 45 1 51 0;
#X connect 47 0 48 0;
#X connect 47 0 50 0;
#X connect 48 0 47 1;
#X connect 48 0 52 1;
#X connect 49 0 52 0;
#X connect 50 0 49 1;
#X connect 51 0 49 0;
#X connect 51 1 47 0;
#X connect 52 0 50 1;
#X connect 52 0 17 0;
#X connect 53 0 47 1;
#X connect 53 0 37 1;
#X connect 53 0 55 0;
#X connect 56 0 59 1;
#X connect 56 1 59 0;
#X connect 57 1 53 0;
#X connect 59 0 62 0;
#X connect 60 0 63 0;
#X connect 61 0 63 1;
#X connect 62 0 60 0;
#X connect 62 1 61 0;
#X connect 63 0 57 0;
#X connect 64 0 20 0;
#X connect 64 1 20 0;
#X connect 64 2 19 0;
#X connect 65 0 20 0;
#X connect 66 0 24 0;
#X coords 0 -1 1 1 120 40 1 100 100;
#X restore -210 -81 pd 16counter;
#X obj -139 -32 t b;
#X obj -79 -34 bng 15 250 50 0 empty empty reset 17 7 0 10 #fcfcfc
#000000 #000000;
#X obj -169 444 dac~;
#N canvas 634 267 527 649 fractalgen1 0;
#X obj 189 287 +;
#X obj 218 313 +;
#X obj 189 350 /;
#X obj 103 130 nbx 3 14 0 128 0 1 empty empty a 0 -8 0 10 #fcfcfc #000000
#000000 55 256;
#X obj -14 180 inlet;
#X obj 43 183 inlet;
#X obj 167 261 float;
#X obj 142 130 nbx 3 14 0 128 0 1 empty empty b 0 -8 0 10 #fcfcfc #000000
#000000 26 256;
#X obj 212 260 float;
#X obj 181 130 nbx 3 14 0 128 0 1 empty empty c 0 -8 0 10 #fcfcfc #000000
#000000 123 256;
#X obj 254 286 float;
#X obj 172 321 abs;
#X obj 190 372 clip 0 1;
#X obj 178 224 t b f;
#X obj 229 224 t b f;
#X obj 104 183 nbx 3 14 0 128 0 1 empty empty st 0 -8 0 10 #fcfcfc
#000000 #000000 29 256;
#X obj 144 183 nbx 3 14 0 128 0 1 empty empty rg 0 -8 0 10 #fcfcfc
#000000 #000000 53 256;
#X obj 11 274 abs;
#X obj 27 348 mod;
#X obj 37 373 +;
#X obj 190 399 moses;
#X obj 106 160 hsl 100 8 0 1 0 1 empty empty thr -2 -8 0 10 #fcfcfc
#000000 #000000 2500 1;
#X obj 33 433 int;
#X obj 229 432 pipe 1;
#X obj 229 455 t b f;
#X obj 271 497 outlet;
#X obj 37 476 outlet;
#N canvas 677 181 1022 653 fractalformula 0;
#X obj 215 -76 inlet;
#X obj 587 20 inlet;
#X text 219 -100 bang;
#X obj 675 41 inlet;
#X obj 734 66 inlet;
#X text 600 1 a;
#X text 687 23 b;
#X text 752 49 c;
#X obj 295 184 outlet;
#X text 596 157 xn+1=yn-sgn(xn)*sqrt(abs(b*xn-c);
#X obj 395 296 outlet;
#X text 394 247 yn+1=a-xn;
#X msg 50 3 0;
#X obj 297 160 expr $f1-($f2*sqrt(abs(($f3*$f4)-$f5)));
#X obj 290 248 expr $f1-$f2;
#X text 317 79 yn;
#X text 410 42 xn;
#X obj 397 62 float;
#X obj 305 98 float;
#X obj 286 220 float;
#X obj 282 13 t b b b;
#N canvas 612 239 450 300 sign 0;
#X obj 160 44 inlet;
#X obj 169 193 outlet;
#X obj 165 108 moses 0;
#X msg 165 139 -1;
#X msg 217 141 1;
#X connect 0 0 2 0;
#X connect 2 0 3 0;
#X connect 2 1 4 0;
#X connect 3 0 1 0;
#X connect 4 0 1 0;
#X restore 370 124 pd sign;
#X obj 59 37 t b f;
#X obj 35 -54 inlet;
#X text 34 -73 reset;
#X connect 0 0 20 0;
#X connect 1 0 19 1;
#X connect 3 0 13 2;
#X connect 4 0 13 4;
#X connect 12 0 22 0;
#X connect 13 0 17 1;
#X connect 13 0 8 0;
#X connect 14 0 18 1;
#X connect 14 0 10 0;
#X connect 17 0 13 3;
#X connect 17 0 14 1;
#X connect 17 0 21 0;
#X connect 18 0 13 0;
#X connect 19 0 14 0;
#X connect 20 0 19 0;
#X connect 20 1 18 0;
#X connect 20 2 17 0;
#X connect 21 0 13 1;
#X connect 22 0 19 0;
#X connect 22 1 14 1;
#X connect 22 1 18 0;
#X connect 23 0 12 0;
#X restore 0 236 pd fractalformula;
#X text 195 18 gingerbread-hopalong-whatever fractal;
#X text 197 37 3/2011 martin brinkmann;
#X connect 0 0 1 0;
#X connect 1 0 2 1;
#X connect 2 0 12 0;
#X connect 3 0 27 2;
#X connect 3 0 6 0;
#X connect 4 0 27 1;
#X connect 5 0 27 0;
#X connect 6 0 0 0;
#X connect 7 0 27 3;
#X connect 7 0 13 0;
#X connect 8 0 0 1;
#X connect 9 0 27 4;
#X connect 9 0 14 0;
#X connect 10 0 1 1;
#X connect 11 0 2 0;
#X connect 12 0 20 0;
#X connect 13 0 6 0;
#X connect 13 1 8 0;
#X connect 14 0 6 0;
#X connect 14 1 10 0;
#X connect 15 0 19 1;
#X connect 16 0 18 1;
#X connect 17 0 18 0;
#X connect 18 0 19 0;
#X connect 19 0 22 1;
#X connect 20 1 23 0;
#X connect 21 0 20 1;
#X connect 22 0 26 0;
#X connect 23 0 24 0;
#X connect 24 0 22 0;
#X connect 24 1 25 0;
#X connect 27 0 17 0;
#X connect 27 1 11 0;
#X coords 0 -1 1 1 120 100 1 100 100;
#X restore -209 -3 pd fractalgen1;
#N canvas 634 267 527 649 fractalgen2 0;
#X obj 189 287 +;
#X obj 218 313 +;
#X obj 189 350 /;
#X obj 103 130 nbx 3 14 0 128 0 1 empty empty a 0 -8 0 10 #fcfcfc #000000
#000000 65 256;
#X obj -14 180 inlet;
#X obj 43 183 inlet;
#X obj 167 261 float;
#X obj 142 130 nbx 3 14 0 128 0 1 empty empty b 0 -8 0 10 #fcfcfc #000000
#000000 64 256;
#X obj 212 260 float;
#X obj 181 130 nbx 3 14 0 128 0 1 empty empty c 0 -8 0 10 #fcfcfc #000000
#000000 71 256;
#X obj 254 286 float;
#X obj 172 321 abs;
#X obj 190 372 clip 0 1;
#X obj 178 224 t b f;
#X obj 229 224 t b f;
#X obj 104 183 nbx 3 14 0 128 0 1 empty empty st 0 -8 0 10 #fcfcfc
#000000 #000000 24 256;
#X obj 144 183 nbx 3 14 0 128 0 1 empty empty rg 0 -8 0 10 #fcfcfc
#000000 #000000 60 256;
#X obj 11 274 abs;
#X obj 27 348 mod;
#X obj 37 373 +;
#X obj 190 399 moses;
#X obj 106 160 hsl 100 8 0 1 0 1 empty empty thr -2 -8 0 10 #fcfcfc
#000000 #000000 4100 1;
#X obj 33 433 int;
#X obj 229 432 pipe 1;
#X obj 229 455 t b f;
#X obj 271 497 outlet;
#X obj 37 476 outlet;
#N canvas 677 181 1022 653 fractalformula 0;
#X obj 215 -76 inlet;
#X obj 587 20 inlet;
#X text 219 -100 bang;
#X obj 675 41 inlet;
#X obj 734 66 inlet;
#X text 600 1 a;
#X text 687 23 b;
#X text 752 49 c;
#X obj 295 184 outlet;
#X text 596 157 xn+1=yn-sgn(xn)*sqrt(abs(b*xn-c);
#X obj 395 296 outlet;
#X text 394 247 yn+1=a-xn;
#X msg 50 3 0;
#X obj 297 160 expr $f1-($f2*sqrt(abs(($f3*$f4)-$f5)));
#X obj 290 248 expr $f1-$f2;
#X text 317 79 yn;
#X text 410 42 xn;
#X obj 397 62 float;
#X obj 305 98 float;
#X obj 286 220 float;
#X obj 282 13 t b b b;
#N canvas 612 239 450 300 sign 0;
#X obj 160 44 inlet;
#X obj 169 193 outlet;
#X obj 165 108 moses 0;
#X msg 165 139 -1;
#X msg 217 141 1;
#X connect 0 0 2 0;
#X connect 2 0 3 0;
#X connect 2 1 4 0;
#X connect 3 0 1 0;
#X connect 4 0 1 0;
#X restore 370 124 pd sign;
#X obj 59 37 t b f;
#X obj 35 -54 inlet;
#X text 34 -73 reset;
#X connect 0 0 20 0;
#X connect 1 0 19 1;
#X connect 3 0 13 2;
#X connect 4 0 13 4;
#X connect 12 0 22 0;
#X connect 13 0 17 1;
#X connect 13 0 8 0;
#X connect 14 0 18 1;
#X connect 14 0 10 0;
#X connect 17 0 13 3;
#X connect 17 0 14 1;
#X connect 17 0 21 0;
#X connect 18 0 13 0;
#X connect 19 0 14 0;
#X connect 20 0 19 0;
#X connect 20 1 18 0;
#X connect 20 2 17 0;
#X connect 21 0 13 1;
#X connect 22 0 19 0;
#X connect 22 1 14 1;
#X connect 22 1 18 0;
#X connect 23 0 12 0;
#X restore 0 236 pd fractalformula;
#X text 195 18 gingerbread-hopalong-whatever fractal;
#X text 197 37 3/2011 martin brinkmann;
#X connect 0 0 1 0;
#X connect 1 0 2 1;
#X connect 2 0 12 0;
#X connect 3 0 27 2;
#X connect 3 0 6 0;
#X connect 4 0 27 1;
#X connect 5 0 27 0;
#X connect 6 0 0 0;
#X connect 7 0 27 3;
#X connect 7 0 13 0;
#X connect 8 0 0 1;
#X connect 9 0 27 4;
#X connect 9 0 14 0;
#X connect 10 0 1 1;
#X connect 11 0 2 0;
#X connect 12 0 20 0;
#X connect 13 0 6 0;
#X connect 13 1 8 0;
#X connect 14 0 6 0;
#X connect 14 1 10 0;
#X connect 15 0 19 1;
#X connect 16 0 18 1;
#X connect 17 0 18 0;
#X connect 18 0 19 0;
#X connect 19 0 22 1;
#X connect 20 1 23 0;
#X connect 21 0 20 1;
#X connect 22 0 26 0;
#X connect 23 0 24 0;
#X connect 24 0 22 0;
#X connect 24 1 25 0;
#X connect 27 0 17 0;
#X connect 27 1 11 0;
#X coords 0 -1 1 1 120 100 1 100 100;
#X restore -79 -3 pd fractalgen2;
#N canvas 634 267 527 649 fractalgen3 0;
#X obj 189 287 +;
#X obj 218 313 +;
#X obj 189 350 /;
#X obj 103 130 nbx 3 14 0 128 0 1 empty empty a 0 -8 0 10 #fcfcfc #000000
#000000 76 256;
#X obj -14 180 inlet;
#X obj 43 183 inlet;
#X obj 167 261 float;
#X obj 142 130 nbx 3 14 0 128 0 1 empty empty b 0 -8 0 10 #fcfcfc #000000
#000000 40 256;
#X obj 212 260 float;
#X obj 181 130 nbx 3 14 0 128 0 1 empty empty c 0 -8 0 10 #fcfcfc #000000
#000000 98 256;
#X obj 254 286 float;
#X obj 172 321 abs;
#X obj 190 372 clip 0 1;
#X obj 178 224 t b f;
#X obj 229 224 t b f;
#X obj 104 183 nbx 3 14 0 128 0 1 empty empty st 0 -8 0 10 #fcfcfc
#000000 #000000 34 256;
#X obj 144 183 nbx 3 14 0 128 0 1 empty empty rg 0 -8 0 10 #fcfcfc
#000000 #000000 54 256;
#X obj 11 274 abs;
#X obj 27 348 mod;
#X obj 37 373 +;
#X obj 190 399 moses;
#X obj 106 160 hsl 100 8 0 1 0 1 empty empty thr -2 -8 0 10 #fcfcfc
#000000 #000000 3500 1;
#X obj 33 433 int;
#X obj 229 432 pipe 1;
#X obj 229 455 t b f;
#X obj 271 497 outlet;
#X obj 37 476 outlet;
#N canvas 677 181 1022 653 fractalformula 0;
#X obj 215 -76 inlet;
#X obj 587 20 inlet;
#X text 219 -100 bang;
#X obj 675 41 inlet;
#X obj 734 66 inlet;
#X text 600 1 a;
#X text 687 23 b;
#X text 752 49 c;
#X obj 295 184 outlet;
#X text 596 157 xn+1=yn-sgn(xn)*sqrt(abs(b*xn-c);
#X obj 395 296 outlet;
#X text 394 247 yn+1=a-xn;
#X msg 50 3 0;
#X obj 297 160 expr $f1-($f2*sqrt(abs(($f3*$f4)-$f5)));
#X obj 290 248 expr $f1-$f2;
#X text 317 79 yn;
#X text 410 42 xn;
#X obj 397 62 float;
#X obj 305 98 float;
#X obj 286 220 float;
#X obj 282 13 t b b b;
#N canvas 612 239 450 300 sign 0;
#X obj 160 44 inlet;
#X obj 169 193 outlet;
#X obj 165 108 moses 0;
#X msg 165 139 -1;
#X msg 217 141 1;
#X connect 0 0 2 0;
#X connect 2 0 3 0;
#X connect 2 1 4 0;
#X connect 3 0 1 0;
#X connect 4 0 1 0;
#X restore 370 124 pd sign;
#X obj 59 37 t b f;
#X obj 35 -54 inlet;
#X text 34 -73 reset;
#X connect 0 0 20 0;
#X connect 1 0 19 1;
#X connect 3 0 13 2;
#X connect 4 0 13 4;
#X connect 12 0 22 0;
#X connect 13 0 17 1;
#X connect 13 0 8 0;
#X connect 14 0 18 1;
#X connect 14 0 10 0;
#X connect 17 0 13 3;
#X connect 17 0 14 1;
#X connect 17 0 21 0;
#X connect 18 0 13 0;
#X connect 19 0 14 0;
#X connect 20 0 19 0;
#X connect 20 1 18 0;
#X connect 20 2 17 0;
#X connect 21 0 13 1;
#X connect 22 0 19 0;
#X connect 22 1 14 1;
#X connect 22 1 18 0;
#X connect 23 0 12 0;
#X restore 0 236 pd fractalformula;
#X text 195 18 gingerbread-hopalong-whatever fractal;
#X text 197 37 3/2011 martin brinkmann;
#X connect 0 0 1 0;
#X connect 1 0 2 1;
#X connect 2 0 12 0;
#X connect 3 0 27 2;
#X connect 3 0 6 0;
#X connect 4 0 27 1;
#X connect 5 0 27 0;
#X connect 6 0 0 0;
#X connect 7 0 27 3;
#X connect 7 0 13 0;
#X connect 8 0 0 1;
#X connect 9 0 27 4;
#X connect 9 0 14 0;
#X connect 10 0 1 1;
#X connect 11 0 2 0;
#X connect 12 0 20 0;
#X connect 13 0 6 0;
#X connect 13 1 8 0;
#X connect 14 0 6 0;
#X connect 14 1 10 0;
#X connect 15 0 19 1;
#X connect 16 0 18 1;
#X connect 17 0 18 0;
#X connect 18 0 19 0;
#X connect 19 0 22 1;
#X connect 20 1 23 0;
#X connect 21 0 20 1;
#X connect 22 0 26 0;
#X connect 23 0 24 0;
#X connect 24 0 22 0;
#X connect 24 1 25 0;
#X connect 27 0 17 0;
#X connect 27 1 11 0;
#X coords 0 -1 1 1 120 100 1 100 100;
#X restore 51 -3 pd fractalgen3;
#N canvas 542 389 704 546 sinefm1 0;
#X obj 28 72 inlet;
#X obj 87 62 inlet;
#X obj 31 123 mtof;
#X obj 55 275 osc~;
#X obj -157 84 catch~ \$0gingerfm1;
#X obj 40 238 +~;
#X obj 56 463 outlet~;
#X obj 7 194 *~;
#X obj 57 350 *~;
#X obj 110 326 vline~;
#X obj 110 115 hsl 100 8 110 180 0 1 empty empty attack 5 5 0 8 #fcfcfc
#000000 #000000 0 1;
#X obj 131 183 dbtorms;
#X obj 110 127 hsl 100 8 110 180 0 1 empty empty decay 5 5 0 8 #fcfcfc
#000000 #000000 6600 1;
#X obj 223 183 dbtorms;
#X obj 132 268 pack f f f;
#X msg 131 291 \$1 \$2 \, 0 \$3 \$2;
#X obj 110 139 hsl 100 8 0 1 0 1 empty empty fm 5 5 0 8 #fcfcfc #000000
#000000 3400 1;
#X obj 138 416 throw~ \$0gingerfm2;
#X obj 79 166 *;
#X obj 64 188 * 3000;
#X connect 0 0 2 0;
#X connect 1 0 14 0;
#X connect 2 0 5 1;
#X connect 3 0 8 0;
#X connect 4 0 7 0;
#X connect 5 0 3 0;
#X connect 7 0 5 0;
#X connect 8 0 6 0;
#X connect 8 0 17 0;
#X connect 9 0 8 1;
#X connect 10 0 11 0;
#X connect 11 0 14 1;
#X connect 12 0 13 0;
#X connect 13 0 14 2;
#X connect 14 0 15 0;
#X connect 15 0 9 0;
#X connect 16 0 18 1;
#X connect 16 0 18 0;
#X connect 18 0 19 0;
#X connect 19 0 7 1;
#X coords 0 -1 1 1 120 50 1 100 100;
#X restore -209 174 pd sinefm1;
#N canvas 543 393 704 546 sinefm2 0;
#X obj 28 72 inlet;
#X obj 87 62 inlet;
#X obj 31 123 mtof;
#X obj 55 275 osc~;
#X obj 40 238 +~;
#X obj 50 474 outlet~;
#X obj 7 194 *~;
#X obj 57 350 *~;
#X obj 110 326 vline~;
#X obj 110 115 hsl 100 8 110 180 0 1 empty empty attack 5 5 0 8 #fcfcfc
#000000 #000000 900 1;
#X obj 131 183 dbtorms;
#X obj 110 127 hsl 100 8 110 180 0 1 empty empty decay 5 5 0 8 #fcfcfc
#000000 #000000 5100 1;
#X obj 223 183 dbtorms;
#X obj 132 268 pack f f f;
#X msg 131 291 \$1 \$2 \, 0 \$3 \$2;
#X obj -156 86 catch~ \$0gingerfm2;
#X obj 138 416 throw~ \$0gingerfm3;
#X obj 110 139 hsl 100 8 0 1 0 1 empty empty fm 5 5 0 8 #fcfcfc #000000
#000000 3600 1;
#X obj 79 166 *;
#X obj 64 188 * 3000;
#X connect 0 0 2 0;
#X connect 1 0 13 0;
#X connect 2 0 4 1;
#X connect 3 0 7 0;
#X connect 4 0 3 0;
#X connect 6 0 4 0;
#X connect 7 0 5 0;
#X connect 7 0 16 0;
#X connect 8 0 7 1;
#X connect 9 0 10 0;
#X connect 10 0 13 1;
#X connect 11 0 12 0;
#X connect 12 0 13 2;
#X connect 13 0 14 0;
#X connect 14 0 8 0;
#X connect 15 0 6 0;
#X connect 17 0 18 1;
#X connect 17 0 18 0;
#X connect 18 0 19 0;
#X connect 19 0 6 1;
#X coords 0 -1 1 1 120 50 1 100 100;
#X restore -79 174 pd sinefm2;
#N canvas 544 397 704 546 sinefm3 0;
#X obj 28 72 inlet;
#X obj 87 62 inlet;
#X obj 31 123 mtof;
#X obj 55 275 osc~;
#X obj 40 238 +~;
#X obj 50 474 outlet~;
#X obj 7 194 *~;
#X obj 57 350 *~;
#X obj 110 326 vline~;
#X obj 110 115 hsl 100 8 110 180 0 1 empty empty attack 5 5 0 8 #fcfcfc
#000000 #000000 0 1;
#X obj 131 183 dbtorms;
#X obj 110 127 hsl 100 8 110 180 0 1 empty empty decay 5 5 0 8 #fcfcfc
#000000 #000000 3400 1;
#X obj 223 183 dbtorms;
#X obj 132 268 pack f f f;
#X msg 131 291 \$1 \$2 \, 0 \$3 \$2;
#X obj 139 415 throw~ \$0gingerfm1;
#X obj -156 86 catch~ \$0gingerfm3;
#X obj 110 139 hsl 100 8 0 1 0 1 empty empty fm 5 5 0 8 #fcfcfc #000000
#000000 2600 1;
#X obj 79 166 *;
#X obj 64 188 * 3000;
#X connect 0 0 2 0;
#X connect 1 0 13 0;
#X connect 2 0 4 1;
#X connect 3 0 7 0;
#X connect 4 0 3 0;
#X connect 6 0 4 0;
#X connect 7 0 5 0;
#X connect 7 0 15 0;
#X connect 8 0 7 1;
#X connect 9 0 10 0;
#X connect 10 0 13 1;
#X connect 11 0 12 0;
#X connect 12 0 13 2;
#X connect 13 0 14 0;
#X connect 14 0 8 0;
#X connect 16 0 6 0;
#X connect 17 0 18 1;
#X connect 17 0 18 0;
#X connect 18 0 19 0;
#X connect 19 0 6 1;
#X coords 0 -1 1 1 120 50 1 100 100;
#X restore 51 174 pd sinefm3;
#N canvas 4 82 692 532 scale3 0;
#X obj -25 97 inlet;
#X obj 30 337 outlet;
#N canvas 42 473 1143 398 notescalefilter 0;
#X obj 195 27 inlet;
#X obj 204 95 inlet;
#X obj 297 104 inlet;
#X obj 395 106 inlet;
#X obj 497 109 inlet;
#X obj 1099 352 outlet;
#X obj 181 148 mod 12;
#X obj 181 171 == 0;
#X obj 194 227 +;
#X obj 152 124 t f f;
#X obj 209 193 *;
#X obj 291 154 mod 12;
#X obj 304 233 +;
#X obj 319 199 *;
#X obj 291 176 == 1;
#X obj 395 155 mod 12;
#X obj 408 234 +;
#X obj 423 200 *;
#X obj 395 176 == 2;
#X obj 204 126 == 0;
#X obj 312 129 == 0;
#X obj 413 130 == 0;
#X obj 500 157 mod 12;
#X obj 513 236 +;
#X obj 528 202 *;
#X obj 518 132 == 0;
#X obj 247 198 t f f;
#X obj 351 201 t f f;
#X obj 456 203 t f f;
#X obj 608 108 inlet;
#X obj 611 156 mod 12;
#X obj 624 235 +;
#X obj 639 201 *;
#X obj 629 131 == 0;
#X obj 567 202 t f f;
#X obj 500 178 == 3;
#X obj 611 177 == 4;
#X obj 723 103 inlet;
#X obj 828 105 inlet;
#X obj 930 108 inlet;
#X obj 717 153 mod 12;
#X obj 730 232 +;
#X obj 745 198 *;
#X obj 828 154 mod 12;
#X obj 841 233 +;
#X obj 856 199 *;
#X obj 738 128 == 0;
#X obj 846 129 == 0;
#X obj 933 156 mod 12;
#X obj 946 235 +;
#X obj 961 201 *;
#X obj 951 131 == 0;
#X obj 673 197 t f f;
#X obj 784 200 t f f;
#X obj 889 202 t f f;
#X obj 1041 107 inlet;
#X obj 1044 155 mod 12;
#X obj 1057 234 +;
#X obj 1072 200 *;
#X obj 1062 130 == 0;
#X obj 1000 201 t f f;
#X obj 717 175 == 5;
#X obj 827 175 == 6;
#X obj 933 177 == 7;
#X obj 1044 176 == 8;
#X obj 1154 106 inlet;
#X obj 1259 108 inlet;
#X obj 1361 111 inlet;
#X obj 1148 156 mod 12;
#X obj 1161 235 +;
#X obj 1176 201 *;
#X obj 1259 157 mod 12;
#X obj 1272 236 +;
#X obj 1287 202 *;
#X obj 1169 131 == 0;
#X obj 1277 132 == 0;
#X obj 1364 159 mod 12;
#X obj 1377 238 +;
#X obj 1392 204 *;
#X obj 1382 134 == 0;
#X obj 1104 200 t f f;
#X obj 1215 203 t f f;
#X obj 1320 205 t f f;
#X obj 1148 178 == 9;
#X obj 1259 178 == 10;
#X obj 1364 180 == 11;
#X floatatom 187 278 5 0 0 0 - - - 0;
#X connect 0 0 9 0;
#X connect 1 0 19 0;
#X connect 2 0 20 0;
#X connect 3 0 21 0;
#X connect 4 0 25 0;
#X connect 6 0 7 0;
#X connect 7 0 10 0;
#X connect 8 0 26 0;
#X connect 8 0 86 0;
#X connect 9 0 8 0;
#X connect 9 1 6 0;
#X connect 10 0 8 1;
#X connect 11 0 14 0;
#X connect 12 0 27 0;
#X connect 13 0 12 1;
#X connect 14 0 13 0;
#X connect 15 0 18 0;
#X connect 16 0 28 0;
#X connect 17 0 16 1;
#X connect 18 0 17 0;
#X connect 19 0 10 1;
#X connect 20 0 13 1;
#X connect 21 0 17 1;
#X connect 22 0 35 0;
#X connect 23 0 34 0;
#X connect 24 0 23 1;
#X connect 25 0 24 1;
#X connect 26 0 12 0;
#X connect 26 1 11 0;
#X connect 27 0 16 0;
#X connect 27 1 15 0;
#X connect 28 0 23 0;
#X connect 28 1 22 0;
#X connect 29 0 33 0;
#X connect 30 0 36 0;
#X connect 31 0 52 0;
#X connect 32 0 31 1;
#X connect 33 0 32 1;
#X connect 34 0 31 0;
#X connect 34 1 30 0;
#X connect 35 0 24 0;
#X connect 36 0 32 0;
#X connect 37 0 46 0;
#X connect 38 0 47 0;
#X connect 39 0 51 0;
#X connect 40 0 61 0;
#X connect 41 0 53 0;
#X connect 42 0 41 1;
#X connect 43 0 62 0;
#X connect 44 0 54 0;
#X connect 45 0 44 1;
#X connect 46 0 42 1;
#X connect 47 0 45 1;
#X connect 48 0 63 0;
#X connect 49 0 60 0;
#X connect 50 0 49 1;
#X connect 51 0 50 1;
#X connect 52 0 41 0;
#X connect 52 1 40 0;
#X connect 53 0 44 0;
#X connect 53 1 43 0;
#X connect 54 0 49 0;
#X connect 54 1 48 0;
#X connect 55 0 59 0;
#X connect 56 0 64 0;
#X connect 57 0 80 0;
#X connect 58 0 57 1;
#X connect 59 0 58 1;
#X connect 60 0 57 0;
#X connect 60 1 56 0;
#X connect 61 0 42 0;
#X connect 62 0 45 0;
#X connect 63 0 50 0;
#X connect 64 0 58 0;
#X connect 65 0 74 0;
#X connect 66 0 75 0;
#X connect 67 0 79 0;
#X connect 68 0 83 0;
#X connect 69 0 81 0;
#X connect 70 0 69 1;
#X connect 71 0 84 0;
#X connect 72 0 82 0;
#X connect 73 0 72 1;
#X connect 74 0 70 1;
#X connect 75 0 73 1;
#X connect 76 0 85 0;
#X connect 77 0 5 0;
#X connect 78 0 77 1;
#X connect 79 0 78 1;
#X connect 80 0 69 0;
#X connect 80 1 68 0;
#X connect 81 0 72 0;
#X connect 81 1 71 0;
#X connect 82 0 77 0;
#X connect 82 1 76 0;
#X connect 83 0 70 0;
#X connect 84 0 73 0;
#X connect 85 0 78 0;
#X restore 125 198 pd notescalefilter;
#X obj 107 133 tgl 15 1 empty empty empty 0 -6 0 8 #fcfcfc #000000
#000000 1 1;
#X obj 128 133 tgl 15 1 empty empty empty 0 -6 0 8 #fcfcfc #000000
#000000 1 1;
#X obj 149 133 tgl 15 1 empty empty empty 0 -6 0 8 #fcfcfc #000000
#000000 0 1;
#X obj 170 133 tgl 15 1 empty empty empty 0 -6 0 8 #fcfcfc #000000
#000000 1 1;
#X obj 191 133 tgl 15 1 empty empty empty 0 -6 0 8 #fcfcfc #000000
#000000 0 1;
#X obj 212 133 tgl 15 1 empty empty empty 0 -6 0 8 #fcfcfc #000000
#000000 1 1;
#X obj 233 133 tgl 15 1 empty empty empty 0 -6 0 8 #fcfcfc #000000
#000000 0 1;
#X obj 117 114 tgl 15 1 empty empty empty 0 -6 0 8 #a0a0a0 #000000
#000000 0 1;
#X obj 139 114 tgl 15 1 empty empty empty 0 -6 0 8 #a0a0a0 #000000
#000000 1 1;
#X obj 179 114 tgl 15 1 empty empty empty 0 -6 0 8 #a0a0a0 #000000
#000000 1 1;
#X obj 201 114 tgl 15 1 empty empty empty 0 -6 0 8 #a0a0a0 #000000
#000000 0 1;
#X obj 223 114 tgl 15 1 empty empty empty 0 -6 0 8 #a0a0a0 #000000
#000000 1 1;
#X obj -2 165 inlet;
#X obj 72 394 outlet;
#N canvas 42 473 1143 398 notescalefilter 0;
#X obj 195 27 inlet;
#X obj 204 95 inlet;
#X obj 297 104 inlet;
#X obj 395 106 inlet;
#X obj 497 109 inlet;
#X obj 1099 352 outlet;
#X obj 181 148 mod 12;
#X obj 181 171 == 0;
#X obj 194 227 +;
#X obj 152 124 t f f;
#X obj 209 193 *;
#X obj 291 154 mod 12;
#X obj 304 233 +;
#X obj 319 199 *;
#X obj 291 176 == 1;
#X obj 395 155 mod 12;
#X obj 408 234 +;
#X obj 423 200 *;
#X obj 395 176 == 2;
#X obj 204 126 == 0;
#X obj 312 129 == 0;
#X obj 413 130 == 0;
#X obj 500 157 mod 12;
#X obj 513 236 +;
#X obj 528 202 *;
#X obj 518 132 == 0;
#X obj 247 198 t f f;
#X obj 351 201 t f f;
#X obj 456 203 t f f;
#X obj 608 108 inlet;
#X obj 611 156 mod 12;
#X obj 624 235 +;
#X obj 639 201 *;
#X obj 629 131 == 0;
#X obj 567 202 t f f;
#X obj 500 178 == 3;
#X obj 611 177 == 4;
#X obj 723 103 inlet;
#X obj 828 105 inlet;
#X obj 930 108 inlet;
#X obj 717 153 mod 12;
#X obj 730 232 +;
#X obj 745 198 *;
#X obj 828 154 mod 12;
#X obj 841 233 +;
#X obj 856 199 *;
#X obj 738 128 == 0;
#X obj 846 129 == 0;
#X obj 933 156 mod 12;
#X obj 946 235 +;
#X obj 961 201 *;
#X obj 951 131 == 0;
#X obj 673 197 t f f;
#X obj 784 200 t f f;
#X obj 889 202 t f f;
#X obj 1041 107 inlet;
#X obj 1044 155 mod 12;
#X obj 1057 234 +;
#X obj 1072 200 *;
#X obj 1062 130 == 0;
#X obj 1000 201 t f f;
#X obj 717 175 == 5;
#X obj 827 175 == 6;
#X obj 933 177 == 7;
#X obj 1044 176 == 8;
#X obj 1154 106 inlet;
#X obj 1259 108 inlet;
#X obj 1361 111 inlet;
#X obj 1148 156 mod 12;
#X obj 1161 235 +;
#X obj 1176 201 *;
#X obj 1259 157 mod 12;
#X obj 1272 236 +;
#X obj 1287 202 *;
#X obj 1169 131 == 0;
#X obj 1277 132 == 0;
#X obj 1364 159 mod 12;
#X obj 1377 238 +;
#X obj 1392 204 *;
#X obj 1382 134 == 0;
#X obj 1104 200 t f f;
#X obj 1215 203 t f f;
#X obj 1320 205 t f f;
#X obj 1148 178 == 9;
#X obj 1259 178 == 10;
#X obj 1364 180 == 11;
#X floatatom 187 278 5 0 0 0 - - - 0;
#X connect 0 0 9 0;
#X connect 1 0 19 0;
#X connect 2 0 20 0;
#X connect 3 0 21 0;
#X connect 4 0 25 0;
#X connect 6 0 7 0;
#X connect 7 0 10 0;
#X connect 8 0 26 0;
#X connect 8 0 86 0;
#X connect 9 0 8 0;
#X connect 9 1 6 0;
#X connect 10 0 8 1;
#X connect 11 0 14 0;
#X connect 12 0 27 0;
#X connect 13 0 12 1;
#X connect 14 0 13 0;
#X connect 15 0 18 0;
#X connect 16 0 28 0;
#X connect 17 0 16 1;
#X connect 18 0 17 0;
#X connect 19 0 10 1;
#X connect 20 0 13 1;
#X connect 21 0 17 1;
#X connect 22 0 35 0;
#X connect 23 0 34 0;
#X connect 24 0 23 1;
#X connect 25 0 24 1;
#X connect 26 0 12 0;
#X connect 26 1 11 0;
#X connect 27 0 16 0;
#X connect 27 1 15 0;
#X connect 28 0 23 0;
#X connect 28 1 22 0;
#X connect 29 0 33 0;
#X connect 30 0 36 0;
#X connect 31 0 52 0;
#X connect 32 0 31 1;
#X connect 33 0 32 1;
#X connect 34 0 31 0;
#X connect 34 1 30 0;
#X connect 35 0 24 0;
#X connect 36 0 32 0;
#X connect 37 0 46 0;
#X connect 38 0 47 0;
#X connect 39 0 51 0;
#X connect 40 0 61 0;
#X connect 41 0 53 0;
#X connect 42 0 41 1;
#X connect 43 0 62 0;
#X connect 44 0 54 0;
#X connect 45 0 44 1;
#X connect 46 0 42 1;
#X connect 47 0 45 1;
#X connect 48 0 63 0;
#X connect 49 0 60 0;
#X connect 50 0 49 1;
#X connect 51 0 50 1;
#X connect 52 0 41 0;
#X connect 52 1 40 0;
#X connect 53 0 44 0;
#X connect 53 1 43 0;
#X connect 54 0 49 0;
#X connect 54 1 48 0;
#X connect 55 0 59 0;
#X connect 56 0 64 0;
#X connect 57 0 80 0;
#X connect 58 0 57 1;
#X connect 59 0 58 1;
#X connect 60 0 57 0;
#X connect 60 1 56 0;
#X connect 61 0 42 0;
#X connect 62 0 45 0;
#X connect 63 0 50 0;
#X connect 64 0 58 0;
#X connect 65 0 74 0;
#X connect 66 0 75 0;
#X connect 67 0 79 0;
#X connect 68 0 83 0;
#X connect 69 0 81 0;
#X connect 70 0 69 1;
#X connect 71 0 84 0;
#X connect 72 0 82 0;
#X connect 73 0 72 1;
#X connect 74 0 70 1;
#X connect 75 0 73 1;
#X connect 76 0 85 0;
#X connect 77 0 5 0;
#X connect 78 0 77 1;
#X connect 79 0 78 1;
#X connect 80 0 69 0;
#X connect 80 1 68 0;
#X connect 81 0 72 0;
#X connect 81 1 71 0;
#X connect 82 0 77 0;
#X connect 82 1 76 0;
#X connect 83 0 70 0;
#X connect 84 0 73 0;
#X connect 85 0 78 0;
#X restore 161 261 pd notescalefilter;
#X obj 51 238 inlet;
#X obj 130 458 outlet;
#N canvas 42 473 1143 398 notescalefilter 0;
#X obj 195 27 inlet;
#X obj 204 95 inlet;
#X obj 297 104 inlet;
#X obj 395 106 inlet;
#X obj 497 109 inlet;
#X obj 1099 352 outlet;
#X obj 181 148 mod 12;
#X obj 181 171 == 0;
#X obj 194 227 +;
#X obj 152 124 t f f;
#X obj 209 193 *;
#X obj 291 154 mod 12;
#X obj 304 233 +;
#X obj 319 199 *;
#X obj 291 176 == 1;
#X obj 395 155 mod 12;
#X obj 408 234 +;
#X obj 423 200 *;
#X obj 395 176 == 2;
#X obj 204 126 == 0;
#X obj 312 129 == 0;
#X obj 413 130 == 0;
#X obj 500 157 mod 12;
#X obj 513 236 +;
#X obj 528 202 *;
#X obj 518 132 == 0;
#X obj 247 198 t f f;
#X obj 351 201 t f f;
#X obj 456 203 t f f;
#X obj 608 108 inlet;
#X obj 611 156 mod 12;
#X obj 624 235 +;
#X obj 639 201 *;
#X obj 629 131 == 0;
#X obj 567 202 t f f;
#X obj 500 178 == 3;
#X obj 611 177 == 4;
#X obj 723 103 inlet;
#X obj 828 105 inlet;
#X obj 930 108 inlet;
#X obj 717 153 mod 12;
#X obj 730 232 +;
#X obj 745 198 *;
#X obj 828 154 mod 12;
#X obj 841 233 +;
#X obj 856 199 *;
#X obj 738 128 == 0;
#X obj 846 129 == 0;
#X obj 933 156 mod 12;
#X obj 946 235 +;
#X obj 961 201 *;
#X obj 951 131 == 0;
#X obj 673 197 t f f;
#X obj 784 200 t f f;
#X obj 889 202 t f f;
#X obj 1041 107 inlet;
#X obj 1044 155 mod 12;
#X obj 1057 234 +;
#X obj 1072 200 *;
#X obj 1062 130 == 0;
#X obj 1000 201 t f f;
#X obj 717 175 == 5;
#X obj 827 175 == 6;
#X obj 933 177 == 7;
#X obj 1044 176 == 8;
#X obj 1154 106 inlet;
#X obj 1259 108 inlet;
#X obj 1361 111 inlet;
#X obj 1148 156 mod 12;
#X obj 1161 235 +;
#X obj 1176 201 *;
#X obj 1259 157 mod 12;
#X obj 1272 236 +;
#X obj 1287 202 *;
#X obj 1169 131 == 0;
#X obj 1277 132 == 0;
#X obj 1364 159 mod 12;
#X obj 1377 238 +;
#X obj 1392 204 *;
#X obj 1382 134 == 0;
#X obj 1104 200 t f f;
#X obj 1215 203 t f f;
#X obj 1320 205 t f f;
#X obj 1148 178 == 9;
#X obj 1259 178 == 10;
#X obj 1364 180 == 11;
#X floatatom 187 278 5 0 0 0 - - - 0;
#X connect 0 0 9 0;
#X connect 1 0 19 0;
#X connect 2 0 20 0;
#X connect 3 0 21 0;
#X connect 4 0 25 0;
#X connect 6 0 7 0;
#X connect 7 0 10 0;
#X connect 8 0 26 0;
#X connect 8 0 86 0;
#X connect 9 0 8 0;
#X connect 9 1 6 0;
#X connect 10 0 8 1;
#X connect 11 0 14 0;
#X connect 12 0 27 0;
#X connect 13 0 12 1;
#X connect 14 0 13 0;
#X connect 15 0 18 0;
#X connect 16 0 28 0;
#X connect 17 0 16 1;
#X connect 18 0 17 0;
#X connect 19 0 10 1;
#X connect 20 0 13 1;
#X connect 21 0 17 1;
#X connect 22 0 35 0;
#X connect 23 0 34 0;
#X connect 24 0 23 1;
#X connect 25 0 24 1;
#X connect 26 0 12 0;
#X connect 26 1 11 0;
#X connect 27 0 16 0;
#X connect 27 1 15 0;
#X connect 28 0 23 0;
#X connect 28 1 22 0;
#X connect 29 0 33 0;
#X connect 30 0 36 0;
#X connect 31 0 52 0;
#X connect 32 0 31 1;
#X connect 33 0 32 1;
#X connect 34 0 31 0;
#X connect 34 1 30 0;
#X connect 35 0 24 0;
#X connect 36 0 32 0;
#X connect 37 0 46 0;
#X connect 38 0 47 0;
#X connect 39 0 51 0;
#X connect 40 0 61 0;
#X connect 41 0 53 0;
#X connect 42 0 41 1;
#X connect 43 0 62 0;
#X connect 44 0 54 0;
#X connect 45 0 44 1;
#X connect 46 0 42 1;
#X connect 47 0 45 1;
#X connect 48 0 63 0;
#X connect 49 0 60 0;
#X connect 50 0 49 1;
#X connect 51 0 50 1;
#X connect 52 0 41 0;
#X connect 52 1 40 0;
#X connect 53 0 44 0;
#X connect 53 1 43 0;
#X connect 54 0 49 0;
#X connect 54 1 48 0;
#X connect 55 0 59 0;
#X connect 56 0 64 0;
#X connect 57 0 80 0;
#X connect 58 0 57 1;
#X connect 59 0 58 1;
#X connect 60 0 57 0;
#X connect 60 1 56 0;
#X connect 61 0 42 0;
#X connect 62 0 45 0;
#X connect 63 0 50 0;
#X connect 64 0 58 0;
#X connect 65 0 74 0;
#X connect 66 0 75 0;
#X connect 67 0 79 0;
#X connect 68 0 83 0;
#X connect 69 0 81 0;
#X connect 70 0 69 1;
#X connect 71 0 84 0;
#X connect 72 0 82 0;
#X connect 73 0 72 1;
#X connect 74 0 70 1;
#X connect 75 0 73 1;
#X connect 76 0 85 0;
#X connect 77 0 5 0;
#X connect 78 0 77 1;
#X connect 79 0 78 1;
#X connect 80 0 69 0;
#X connect 80 1 68 0;
#X connect 81 0 72 0;
#X connect 81 1 71 0;
#X connect 82 0 77 0;
#X connect 82 1 76 0;
#X connect 83 0 70 0;
#X connect 84 0 73 0;
#X connect 85 0 78 0;
#X restore 220 316 pd notescalefilter;
#X connect 0 0 2 0;
#X connect 2 0 1 0;
#X connect 3 0 2 1;
#X connect 3 0 17 1;
#X connect 3 0 20 1;
#X connect 4 0 2 3;
#X connect 4 0 17 3;
#X connect 4 0 20 3;
#X connect 5 0 2 5;
#X connect 5 0 17 5;
#X connect 5 0 20 5;
#X connect 6 0 2 6;
#X connect 6 0 17 6;
#X connect 6 0 20 6;
#X connect 7 0 2 8;
#X connect 7 0 17 8;
#X connect 7 0 20 8;
#X connect 8 0 2 10;
#X connect 8 0 17 10;
#X connect 8 0 20 10;
#X connect 9 0 2 12;
#X connect 9 0 17 12;
#X connect 9 0 20 12;
#X connect 10 0 2 2;
#X connect 10 0 17 2;
#X connect 10 0 20 2;
#X connect 11 0 2 4;
#X connect 11 0 17 4;
#X connect 11 0 20 4;
#X connect 12 0 2 7;
#X connect 12 0 17 7;
#X connect 12 0 20 7;
#X connect 13 0 2 9;
#X connect 13 0 17 9;
#X connect 13 0 20 9;
#X connect 14 0 2 11;
#X connect 14 0 17 11;
#X connect 14 0 20 11;
#X connect 15 0 17 0;
#X connect 17 0 16 0;
#X connect 18 0 20 0;
#X connect 20 0 19 0;
#X coords 0 -1 1 1 160 50 1 100 100;
#X restore -196 115 pd scale3;
#N canvas 59 26 1860 984 beatdelay1ff 0;
#X obj 26 93 inlet~;
#X obj 172 67 inlet;
#X obj 221 467 outlet~;
#X floatatom 189 143 5 0 0 0 - - - 0;
#X obj 29 15 hradio 12 1 1 8 empty empty 1/16 -25 6 0 8 #fcfcfc #000000
#000000 3;
#X obj 188 162 pow -1;
#X obj 254 156 + 1;
#X obj 188 185 / 4;
#X obj 201 208 *;
#X obj 212 236 * 60000;
#X obj 14 182 +~;
#X obj 55 155 *~;
#X obj 28 34 hsl 96 8 0 0.95 0 1 empty empty fb -16 5 0 8 #fcfcfc #000000
#000000 0 1;
#X text 215 66 <- bpm in;
#X obj 180 8 loadbang;
#X floatatom 255 127 5 0 0 0 - - - 0;
#X obj 124 95 t b b;
#X text 3 270 <- unique name for delayline! ->;
#X obj 28 46 hsl 96 8 20 5000 1 1 empty empty frq -20 5 0 8 #fcfcfc
#000000 #000000 5400 1;
#X text 201 35 beatsynced delay with filtered feedback;
#X obj 78 129 hip~ 100;
#X obj -131 267 delwrite~ \$0fbdl1 2000;
#X obj 231 274 delread~ \$0fbdl1;
#X obj 28 58 hsl 96 8 1 5 0 1 empty empty dis -20 4 0 8 #fcfcfc #000000
#000000 3900 1;
#X obj 224 406 /~;
#X obj 252 347 abs~;
#X obj 231 300 *~;
#X obj 251 373 +~ 0.75;
#X obj 73 202 bp~ 0 1;
#X connect 0 0 10 0;
#X connect 1 0 3 0;
#X connect 3 0 5 0;
#X connect 4 0 15 0;
#X connect 4 0 16 0;
#X connect 5 0 7 0;
#X connect 6 0 8 1;
#X connect 7 0 8 0;
#X connect 8 0 9 0;
#X connect 9 0 22 0;
#X connect 10 0 21 0;
#X connect 11 0 10 1;
#X connect 12 0 11 1;
#X connect 14 0 16 0;
#X connect 15 0 6 0;
#X connect 16 0 3 0;
#X connect 16 1 15 0;
#X connect 18 0 28 1;
#X connect 20 0 11 0;
#X connect 22 0 26 0;
#X connect 23 0 26 1;
#X connect 24 0 2 0;
#X connect 24 0 28 0;
#X connect 25 0 27 0;
#X connect 26 0 24 0;
#X connect 26 0 25 0;
#X connect 27 0 24 1;
#X connect 28 0 20 0;
#X coords 0 -1 1 1 130 75 1 0 0;
#X restore -210 291 pd beatdelay1ff;
#N canvas 319 270 649 492 beatdelay2ff 0;
#X obj 26 93 inlet~;
#X obj 172 67 inlet;
#X obj 254 465 outlet~;
#X floatatom 189 143 5 0 0 0 - - - 0;
#X obj 29 15 hradio 12 1 1 8 empty empty 1/16 -25 6 0 8 #fcfcfc #000000
#000000 2;
#X obj 188 162 pow -1;
#X obj 254 156 + 1;
#X obj 188 185 / 4;
#X obj 201 208 *;
#X obj 212 236 * 60000;
#X obj 14 182 +~;
#X obj 55 155 *~;
#X obj 28 34 hsl 96 8 0 0.95 0 1 empty empty fb -16 5 0 8 #fcfcfc #000000
#000000 0 1;
#X text 215 66 <- bpm in;
#X obj 180 8 loadbang;
#X floatatom 255 127 5 0 0 0 - - - 0;
#X obj 124 95 t b b;
#X text 3 270 <- unique name for delayline! ->;
#X obj 28 46 hsl 96 8 20 5000 1 1 empty empty frq -20 5 0 8 #fcfcfc
#000000 #000000 9100 1;
#X text 201 35 beatsynced delay with filtered feedback;
#X obj 78 129 hip~ 100;
#X obj 231 274 delread~ \$0fbdl2;
#X obj -131 267 delwrite~ \$0fbdl2 2000;
#X obj 28 58 hsl 96 8 1 5 0 1 empty empty dis -20 4 0 8 #fcfcfc #000000
#000000 2600 1;
#X obj 255 407 /~;
#X obj 283 348 abs~;
#X obj 262 301 *~;
#X obj 282 374 +~ 0.75;
#X obj 128 179 bp~ 0 1;
#X connect 0 0 10 0;
#X connect 1 0 3 0;
#X connect 3 0 5 0;
#X connect 4 0 15 0;
#X connect 4 0 16 0;
#X connect 5 0 7 0;
#X connect 6 0 8 1;
#X connect 7 0 8 0;
#X connect 8 0 9 0;
#X connect 9 0 21 0;
#X connect 10 0 22 0;
#X connect 11 0 10 1;
#X connect 12 0 11 1;
#X connect 14 0 16 0;
#X connect 15 0 6 0;
#X connect 16 0 3 0;
#X connect 16 1 15 0;
#X connect 18 0 28 1;
#X connect 20 0 11 0;
#X connect 21 0 26 0;
#X connect 23 0 26 1;
#X connect 24 0 2 0;
#X connect 24 0 28 0;
#X connect 25 0 27 0;
#X connect 26 0 24 0;
#X connect 26 0 25 0;
#X connect 27 0 24 1;
#X connect 28 0 20 0;
#X coords 0 -1 1 1 130 75 1 0 0;
#X restore -74 290 pd beatdelay2ff;
#N canvas 7 94 854 367 3levels 0;
#X obj 40 38 inlet~;
#X obj 41 270 outlet~;
#X obj 82 196 *;
#X obj 41 242 *~;
#X floatatom 106 114 3 0 128 0 - - - 0;
#X obj 91 171 / 128;
#X obj 138 38 inlet~;
#X obj 139 270 outlet~;
#X obj 170 196 *;
#X obj 139 242 *~;
#X floatatom 132 114 3 0 128 0 - - - 0;
#X obj 179 171 / 128;
#X obj 219 39 inlet~;
#X obj 220 271 outlet~;
#X obj 251 197 *;
#X obj 220 243 *~;
#X floatatom 158 114 3 0 128 0 - - - 0;
#X obj 260 172 / 128;
#X obj 81 220 * 1;
#X obj 168 222 * 1;
#X obj 249 219 * 1;
#X msg 56 65 set \$1;
#X msg 64 91 46;
#X obj 192 9 loadbang;
#X msg 113 63 set \$1;
#X msg 121 89 67;
#X msg 172 64 set \$1;
#X msg 180 90 61;
#X connect 0 0 3 0;
#X connect 2 0 18 0;
#X connect 3 0 1 0;
#X connect 4 0 5 0;
#X connect 4 0 21 0;
#X connect 5 0 2 1;
#X connect 5 0 2 0;
#X connect 6 0 9 0;
#X connect 8 0 19 0;
#X connect 9 0 7 0;
#X connect 10 0 11 0;
#X connect 10 0 24 0;
#X connect 11 0 8 1;
#X connect 11 0 8 0;
#X connect 12 0 15 0;
#X connect 14 0 20 0;
#X connect 15 0 13 0;
#X connect 16 0 17 0;
#X connect 16 0 26 0;
#X connect 17 0 14 1;
#X connect 17 0 14 0;
#X connect 18 0 3 1;
#X connect 19 0 9 1;
#X connect 20 0 15 1;
#X connect 21 0 22 0;
#X connect 22 0 4 0;
#X connect 23 0 22 0;
#X connect 23 0 25 0;
#X connect 23 0 27 0;
#X connect 24 0 25 0;
#X connect 25 0 10 0;
#X connect 26 0 27 0;
#X connect 27 0 16 0;
#X coords 0 -1 1 1 90 30 1 100 100;
#X restore -200 246 pd 3levels;
#N canvas 7 94 854 367 3levels 0;
#X obj 40 38 inlet~;
#X obj 41 270 outlet~;
#X obj 82 196 *;
#X obj 41 242 *~;
#X floatatom 106 114 3 0 128 0 - - - 0;
#X obj 91 171 / 128;
#X obj 138 38 inlet~;
#X obj 139 270 outlet~;
#X obj 170 196 *;
#X obj 139 242 *~;
#X floatatom 132 114 3 0 128 0 - - - 0;
#X obj 179 171 / 128;
#X obj 219 39 inlet~;
#X obj 220 271 outlet~;
#X obj 251 197 *;
#X obj 220 243 *~;
#X floatatom 158 114 3 0 128 0 - - - 0;
#X obj 260 172 / 128;
#X obj 81 220 * 1;
#X obj 168 222 * 1;
#X obj 249 219 * 1;
#X msg 56 65 set \$1;
#X msg 64 91 22;
#X obj 192 9 loadbang;
#X msg 113 63 set \$1;
#X msg 121 89 14;
#X msg 172 64 set \$1;
#X msg 180 90 9;
#X connect 0 0 3 0;
#X connect 2 0 18 0;
#X connect 3 0 1 0;
#X connect 4 0 5 0;
#X connect 4 0 21 0;
#X connect 5 0 2 1;
#X connect 5 0 2 0;
#X connect 6 0 9 0;
#X connect 8 0 19 0;
#X connect 9 0 7 0;
#X connect 10 0 11 0;
#X connect 10 0 24 0;
#X connect 11 0 8 1;
#X connect 11 0 8 0;
#X connect 12 0 15 0;
#X connect 14 0 20 0;
#X connect 15 0 13 0;
#X connect 16 0 17 0;
#X connect 16 0 26 0;
#X connect 17 0 14 1;
#X connect 17 0 14 0;
#X connect 18 0 3 1;
#X connect 19 0 9 1;
#X connect 20 0 15 1;
#X connect 21 0 22 0;
#X connect 22 0 4 0;
#X connect 23 0 22 0;
#X connect 23 0 25 0;
#X connect 23 0 27 0;
#X connect 24 0 25 0;
#X connect 25 0 10 0;
#X connect 26 0 27 0;
#X connect 27 0 16 0;
#X coords 0 -1 1 1 90 30 1 100 100;
#X restore -90 247 pd 3levels;
#N canvas 7 94 854 367 3levels 0;
#X obj 40 38 inlet~;
#X obj 41 270 outlet~;
#X obj 82 196 *;
#X obj 41 242 *~;
#X floatatom 106 114 3 0 128 0 - - - 0;
#X obj 91 171 / 128;
#X obj 138 38 inlet~;
#X obj 139 270 outlet~;
#X obj 170 196 *;
#X obj 139 242 *~;
#X floatatom 132 114 3 0 128 0 - - - 0;
#X obj 179 171 / 128;
#X obj 219 39 inlet~;
#X obj 220 271 outlet~;
#X obj 251 197 *;
#X obj 220 243 *~;
#X floatatom 158 114 3 0 128 0 - - - 0;
#X obj 260 172 / 128;
#X obj 81 220 * 1;
#X obj 168 222 * 1;
#X obj 249 219 * 1;
#X msg 56 65 set \$1;
#X msg 64 91 42;
#X obj 192 9 loadbang;
#X msg 113 63 set \$1;
#X msg 121 89 0;
#X msg 172 64 set \$1;
#X msg 180 90 95;
#X connect 0 0 3 0;
#X connect 2 0 18 0;
#X connect 3 0 1 0;
#X connect 4 0 5 0;
#X connect 4 0 21 0;
#X connect 5 0 2 1;
#X connect 5 0 2 0;
#X connect 6 0 9 0;
#X connect 8 0 19 0;
#X connect 9 0 7 0;
#X connect 10 0 11 0;
#X connect 10 0 24 0;
#X connect 11 0 8 1;
#X connect 11 0 8 0;
#X connect 12 0 15 0;
#X connect 14 0 20 0;
#X connect 15 0 13 0;
#X connect 16 0 17 0;
#X connect 16 0 26 0;
#X connect 17 0 14 1;
#X connect 17 0 14 0;
#X connect 18 0 3 1;
#X connect 19 0 9 1;
#X connect 20 0 15 1;
#X connect 21 0 22 0;
#X connect 22 0 4 0;
#X connect 23 0 22 0;
#X connect 23 0 25 0;
#X connect 23 0 27 0;
#X connect 24 0 25 0;
#X connect 25 0 10 0;
#X connect 26 0 27 0;
#X connect 27 0 16 0;
#X coords 0 -1 1 1 90 30 1 100 100;
#X restore 16 249 pd 3levels;
#N canvas 10 106 854 393 mixer6 0;
#X obj 41 135 inlet~;
#X obj 81 196 *;
#X obj 40 242 *~;
#X floatatom 103 113 3 0 128 0 - - - 0;
#X obj 90 171 / 128;
#X obj 143 153 inlet~;
#X obj 168 216 *;
#X obj 138 242 *~;
#X floatatom 136 113 3 0 128 0 - - - 0;
#X obj 177 191 / 128;
#X obj 218 150 inlet~;
#X obj 250 197 *;
#X obj 219 243 *~;
#X floatatom 169 113 3 0 128 0 - - - 0;
#X obj 259 172 / 128;
#X obj 80 220 * 1;
#X obj 166 242 * 1;
#X obj 248 219 * 1;
#X msg 50 34 set \$1;
#X msg 58 60 118;
#X obj 186 -22 loadbang;
#X msg 107 32 set \$1;
#X msg 115 58 103;
#X msg 166 33 set \$1;
#X msg 174 59 116;
#X obj 121 480 outlet~;
#X obj 364 455 outlet~;
#N canvas 0 0 450 300 pan1 0;
#X obj 297 51 inlet~;
#X obj 256 225 outlet~;
#X obj 336 218 outlet~;
#X obj 251 149 *~;
#X obj 323 154 *~;
#X obj 160 42 clip~ 0 1;
#X obj 120 15 inlet~;
#X obj 208 75 *~ -1;
#X obj 276 122 +~ 1;
#X obj 335 113 *~ -1;
#X connect 0 0 3 0;
#X connect 0 0 4 1;
#X connect 3 0 1 0;
#X connect 4 0 2 0;
#X connect 5 0 7 0;
#X connect 6 0 5 0;
#X connect 7 0 8 0;
#X connect 7 0 9 0;
#X connect 8 0 3 1;
#X connect 9 0 4 0;
#X restore -16 348 pd pan1;
#N canvas 0 0 450 300 pan1 0;
#X obj 297 51 inlet~;
#X obj 256 225 outlet~;
#X obj 336 218 outlet~;
#X obj 251 149 *~;
#X obj 323 154 *~;
#X obj 160 42 clip~ 0 1;
#X obj 120 15 inlet~;
#X obj 208 75 *~ -1;
#X obj 276 122 +~ 1;
#X obj 335 113 *~ -1;
#X connect 0 0 3 0;
#X connect 0 0 4 1;
#X connect 3 0 1 0;
#X connect 4 0 2 0;
#X connect 5 0 7 0;
#X connect 6 0 5 0;
#X connect 7 0 8 0;
#X connect 7 0 9 0;
#X connect 8 0 3 1;
#X connect 9 0 4 0;
#X restore 91 355 pd pan1;
#N canvas 0 0 450 300 pan1 0;
#X obj 297 51 inlet~;
#X obj 256 225 outlet~;
#X obj 336 218 outlet~;
#X obj 251 149 *~;
#X obj 323 154 *~;
#X obj 160 42 clip~ 0 1;
#X obj 120 15 inlet~;
#X obj 208 75 *~ -1;
#X obj 276 122 +~ 1;
#X obj 335 113 *~ -1;
#X connect 0 0 3 0;
#X connect 0 0 4 1;
#X connect 3 0 1 0;
#X connect 4 0 2 0;
#X connect 5 0 7 0;
#X connect 6 0 5 0;
#X connect 7 0 8 0;
#X connect 7 0 9 0;
#X connect 8 0 3 1;
#X connect 9 0 4 0;
#X restore 176 355 pd pan1;
#X obj 106 130 hsl 24 8 0 1 0 1 empty empty empty -2 -8 0 10 #fcfcfc
#000000 #000000 700 1;
#X obj 139 130 hsl 24 8 0 1 0 1 empty empty empty -2 -8 0 10 #fcfcfc
#000000 #000000 1000 1;
#X obj 172 130 hsl 24 8 0 1 0 1 empty empty empty -2 -8 0 10 #fcfcfc
#000000 #000000 1400 1;
#X obj 310 162 inlet~;
#X obj 366 201 *;
#X obj 335 247 *~;
#X floatatom 202 113 3 0 128 0 - - - 0;
#X obj 375 176 / 128;
#X obj 364 223 * 1;
#N canvas 0 0 450 300 pan1 0;
#X obj 297 51 inlet~;
#X obj 256 225 outlet~;
#X obj 336 218 outlet~;
#X obj 251 149 *~;
#X obj 323 154 *~;
#X obj 160 42 clip~ 0 1;
#X obj 120 15 inlet~;
#X obj 208 75 *~ -1;
#X obj 276 122 +~ 1;
#X obj 335 113 *~ -1;
#X connect 0 0 3 0;
#X connect 0 0 4 1;
#X connect 3 0 1 0;
#X connect 4 0 2 0;
#X connect 5 0 7 0;
#X connect 6 0 5 0;
#X connect 7 0 8 0;
#X connect 7 0 9 0;
#X connect 8 0 3 1;
#X connect 9 0 4 0;
#X restore 285 360 pd pan1;
#X obj 205 130 hsl 24 8 0 1 0 1 empty empty empty -2 -8 0 10 #fcfcfc
#000000 #000000 1800 1;
#X obj 428 168 inlet~;
#X obj 484 207 *;
#X obj 453 253 *~;
#X floatatom 235 113 3 0 128 0 - - - 0;
#X obj 493 182 / 128;
#X obj 482 229 * 1;
#N canvas 0 0 450 300 pan1 0;
#X obj 297 51 inlet~;
#X obj 256 225 outlet~;
#X obj 336 218 outlet~;
#X obj 251 149 *~;
#X obj 323 154 *~;
#X obj 160 42 clip~ 0 1;
#X obj 120 15 inlet~;
#X obj 208 75 *~ -1;
#X obj 276 122 +~ 1;
#X obj 335 113 *~ -1;
#X connect 0 0 3 0;
#X connect 0 0 4 1;
#X connect 3 0 1 0;
#X connect 4 0 2 0;
#X connect 5 0 7 0;
#X connect 6 0 5 0;
#X connect 7 0 8 0;
#X connect 7 0 9 0;
#X connect 8 0 3 1;
#X connect 9 0 4 0;
#X restore 403 366 pd pan1;
#X obj 238 130 hsl 24 8 0 1 0 1 empty empty empty -2 -8 0 10 #fcfcfc
#000000 #000000 600 1;
#X obj 548 168 inlet~;
#X obj 604 207 *;
#X obj 573 253 *~;
#X floatatom 268 113 3 0 128 0 - - - 0;
#X obj 613 182 / 128;
#X obj 602 229 * 1;
#N canvas 0 0 450 300 pan1 0;
#X obj 297 51 inlet~;
#X obj 256 225 outlet~;
#X obj 336 218 outlet~;
#X obj 251 149 *~;
#X obj 323 154 *~;
#X obj 160 42 clip~ 0 1;
#X obj 120 15 inlet~;
#X obj 208 75 *~ -1;
#X obj 276 122 +~ 1;
#X obj 335 113 *~ -1;
#X connect 0 0 3 0;
#X connect 0 0 4 1;
#X connect 3 0 1 0;
#X connect 4 0 2 0;
#X connect 5 0 7 0;
#X connect 6 0 5 0;
#X connect 7 0 8 0;
#X connect 7 0 9 0;
#X connect 8 0 3 1;
#X connect 9 0 4 0;
#X restore 523 366 pd pan1;
#X obj 271 130 hsl 24 8 0 1 0 1 empty empty empty -2 -8 0 10 #fcfcfc
#000000 #000000 1400 1;
#X msg 223 34 set \$1;
#X msg 231 60 50;
#X msg 280 32 set \$1;
#X msg 288 58 32;
#X msg 339 33 set \$1;
#X msg 347 59 81;
#X connect 0 0 2 0;
#X connect 1 0 15 0;
#X connect 2 0 27 1;
#X connect 3 0 4 0;
#X connect 3 0 18 0;
#X connect 4 0 1 1;
#X connect 4 0 1 0;
#X connect 5 0 7 0;
#X connect 6 0 16 0;
#X connect 7 0 28 1;
#X connect 8 0 9 0;
#X connect 8 0 21 0;
#X connect 9 0 6 1;
#X connect 9 0 6 0;
#X connect 10 0 12 0;
#X connect 11 0 17 0;
#X connect 12 0 29 1;
#X connect 13 0 14 0;
#X connect 13 0 23 0;
#X connect 14 0 11 1;
#X connect 14 0 11 0;
#X connect 15 0 2 1;
#X connect 16 0 7 1;
#X connect 17 0 12 1;
#X connect 18 0 19 0;
#X connect 19 0 3 0;
#X connect 20 0 19 0;
#X connect 20 0 22 0;
#X connect 20 0 24 0;
#X connect 20 0 58 0;
#X connect 20 0 60 0;
#X connect 20 0 62 0;
#X connect 21 0 22 0;
#X connect 22 0 8 0;
#X connect 23 0 24 0;
#X connect 24 0 13 0;
#X connect 27 0 25 0;
#X connect 27 1 26 0;
#X connect 28 0 25 0;
#X connect 28 1 26 0;
#X connect 29 0 25 0;
#X connect 29 1 26 0;
#X connect 30 0 27 0;
#X connect 31 0 28 0;
#X connect 32 0 29 0;
#X connect 33 0 35 0;
#X connect 34 0 38 0;
#X connect 35 0 39 1;
#X connect 36 0 37 0;
#X connect 36 0 57 0;
#X connect 37 0 34 1;
#X connect 37 0 34 0;
#X connect 38 0 35 1;
#X connect 39 0 25 0;
#X connect 39 1 26 0;
#X connect 40 0 39 0;
#X connect 41 0 43 0;
#X connect 42 0 46 0;
#X connect 43 0 47 1;
#X connect 44 0 45 0;
#X connect 44 0 59 0;
#X connect 45 0 42 1;
#X connect 45 0 42 0;
#X connect 46 0 43 1;
#X connect 47 0 25 0;
#X connect 47 1 26 0;
#X connect 48 0 47 0;
#X connect 49 0 51 0;
#X connect 50 0 54 0;
#X connect 51 0 55 1;
#X connect 52 0 53 0;
#X connect 52 0 61 0;
#X connect 53 0 50 1;
#X connect 53 0 50 0;
#X connect 54 0 51 1;
#X connect 55 0 25 0;
#X connect 55 1 26 0;
#X connect 56 0 55 0;
#X connect 57 0 58 0;
#X connect 58 0 36 0;
#X connect 59 0 60 0;
#X connect 60 0 44 0;
#X connect 61 0 62 0;
#X connect 62 0 52 0;
#X coords 0 -1 1 1 200 40 1 100 100;
#X restore -178 386 pd mixer6;
#X text -26 -47 4/2011 martin brinkmann;
#N canvas 342 73 693 820 flangephaser1 0;
#X obj -135 565 +~;
#X obj 11 383 expr~ 1 - 0.03 - 0.6*abs($v1-0.5)*abs($v1-0.5);
#X obj -145 -36 inlet~;
#X obj -143 608 outlet~;
#X obj 153 117 hsl 100 8 0.05 5 0 1 empty empty spd -22 5 0 8 #fcfcfc
#000000 #000000 1600 1;
#X obj -34 191 phasor~;
#N canvas 170 108 799 787 stages_delay 0;
#X obj -124 261 rpole~;
#X obj -124 236 rzero_rev~;
#X obj -124 320 rpole~;
#X obj -124 295 rzero_rev~;
#X obj -124 378 rpole~;
#X obj -124 353 rzero_rev~;
#X obj -124 437 rpole~;
#X obj -124 412 rzero_rev~;
#X obj -124 498 rpole~;
#X obj -124 473 rzero_rev~;
#X obj -124 557 rpole~;
#X obj -124 532 rzero_rev~;
#X obj 239 159 inlet~;
#X obj -30 52 block~ 1;
#X obj -52 696 outlet~;
#X obj -94 86 inlet~;
#X obj 483 515 outlet~;
#X obj 15 134 +~;
#X obj 246 422 *~;
#X text 451 219 <-delaytime (ms);
#X obj 536 248 inlet;
#X text 580 251 <- fb 0 < fb < 1;
#X obj 395 222 inlet~;
#X obj -126 592 delwrite~ \$0pflng1 100;
#X obj 233 356 vd~ \$0pflng1;
#X connect 0 0 3 0;
#X connect 1 0 0 0;
#X connect 2 0 5 0;
#X connect 3 0 2 0;
#X connect 4 0 7 0;
#X connect 5 0 4 0;
#X connect 6 0 9 0;
#X connect 7 0 6 0;
#X connect 8 0 11 0;
#X connect 9 0 8 0;
#X connect 10 0 23 0;
#X connect 11 0 10 0;
#X connect 12 0 1 1;
#X connect 12 0 0 1;
#X connect 12 0 3 1;
#X connect 12 0 2 1;
#X connect 12 0 5 1;
#X connect 12 0 4 1;
#X connect 12 0 7 1;
#X connect 12 0 6 1;
#X connect 12 0 9 1;
#X connect 12 0 8 1;
#X connect 12 0 11 1;
#X connect 12 0 10 1;
#X connect 15 0 17 0;
#X connect 17 0 1 0;
#X connect 18 0 17 1;
#X connect 20 0 18 1;
#X connect 22 0 24 0;
#X connect 24 0 16 0;
#X connect 24 0 18 0;
#X connect 24 0 14 0;
#X restore -54 468 pd stages_delay;
#X obj 125 129 hsl 128 8 0 0.99 0 1 empty empty fb -16 5 0 8 #fcfcfc
#000000 #000000 4200 1;
#X obj 125 139 hsl 128 8 0 24 0 1 empty empty dl -16 5 0 8 #fcfcfc
#000000 #000000 1700 1;
#X obj -66 217 cos~;
#X obj -67 240 +~ 0.5;
#X obj -44 322 +~;
#X obj -70 296 *~;
#X obj 125 149 hsl 128 8 0 16 0 1 empty empty fd -16 5 0 8 #fcfcfc
#000000 #000000 5100 1;
#X connect 0 0 3 0;
#X connect 1 0 6 1;
#X connect 2 0 0 0;
#X connect 2 0 6 0;
#X connect 4 0 5 0;
#X connect 5 0 1 0;
#X connect 5 0 9 0;
#X connect 6 0 0 1;
#X connect 7 0 6 3;
#X connect 8 0 11 1;
#X connect 9 0 10 0;
#X connect 10 0 12 0;
#X connect 11 0 6 2;
#X connect 12 0 11 0;
#X connect 13 0 12 1;
#X coords 0 -1 1 1 160 60 1 100 100;
#X restore 62 296 pd flangephaser1;
#X text -25 -74 gingerbread-hopalong-whatever-fractal \, 3 voice fm
oscs \, effects;
#X connect 0 0 1 0;
#X connect 0 2 11 1;
#X connect 0 2 12 1;
#X connect 0 2 2 0;
#X connect 1 0 4 0;
#X connect 1 0 5 0;
#X connect 1 0 6 0;
#X connect 2 0 4 1;
#X connect 2 0 5 1;
#X connect 2 0 6 1;
#X connect 4 0 10 0;
#X connect 4 1 7 1;
#X connect 5 0 10 1;
#X connect 5 1 8 1;
#X connect 6 0 10 2;
#X connect 6 1 9 1;
#X connect 7 0 16 0;
#X connect 7 0 13 0;
#X connect 7 0 14 0;
#X connect 7 0 15 0;
#X connect 8 0 16 1;
#X connect 8 0 13 1;
#X connect 8 0 14 1;
#X connect 8 0 15 1;
#X connect 9 0 16 2;
#X connect 9 0 13 2;
#X connect 9 0 14 2;
#X connect 9 0 15 2;
#X connect 10 0 7 0;
#X connect 10 1 8 0;
#X connect 10 2 9 0;
#X connect 11 0 16 3;
#X connect 12 0 16 4;
#X connect 13 0 11 0;
#X connect 13 1 11 0;
#X connect 13 2 11 0;
#X connect 14 0 12 0;
#X connect 14 1 12 0;
#X connect 14 2 12 0;
#X connect 15 0 18 0;
#X connect 15 1 18 0;
#X connect 15 2 18 0;
#X connect 16 0 3 0;
#X connect 16 1 3 1;
#X connect 18 0 16 5;
