#N canvas 521 223 676 300 12;
#X obj 105 42 loadbang;
#X obj 105 67 metro 1000;
#X obj 105 92 bng 15 250 50 0 empty empty empty 17 7 0 10 #fcfcfc #000000
#000000;
#X obj 223 23 loadbang;
#X obj 223 48 metro 1500;
#X obj 223 87 send BLA;
#X obj 223 121 receive BLA;
#X connect 0 0 1 0;
#X connect 1 0 2 0;
#X connect 3 0 4 0;
#X connect 4 0 5 0;
