#N canvas 64 202 838 484 10;
#X obj 274 18 soundfiler;
#X obj 341 50 print LOADED;
#X msg 274 -10 read -resize ../assets/samples/monster.wav SAMPLE;
#X obj 241 220 r bitDepth;
#X obj 245 50 s SAMPCOUNT;
#X obj 158 281 dac~;
#X obj 62 -16 / 44100;
#X obj 62 90 phasor~;
#X obj 62 62 /;
#X msg 62 36 1;
#X obj 62 11 t b f;
#X obj 63 120 *~;
#X obj 160 254 bitcrusher~ 16;
#X obj 274 -40 loadbang;
#X obj 380 18 table SAMPLE 100;
#X obj 62 -42 r SAMPCOUNT;
#X obj 125 88 r SAMPCOUNT;
#X obj 63 150 tabread~ SAMPLE;
#X connect 0 0 1 0;
#X connect 0 0 4 0;
#X connect 2 0 0 0;
#X connect 3 0 12 1;
#X connect 6 0 10 0;
#X connect 7 0 11 0;
#X connect 8 0 7 0;
#X connect 9 0 8 0;
#X connect 10 0 9 0;
#X connect 10 1 8 1;
#X connect 11 0 17 0;
#X connect 12 0 5 0;
#X connect 12 0 5 1;
#X connect 13 0 2 0;
#X connect 15 0 6 0;
#X connect 16 0 11 1;
#X connect 17 0 12 0;
