#N canvas 532 173 593 332 10;
#X obj 211 193 tabwrite BLA;
#X obj 263 108 + 1;
#X obj 196 109 f;
#X msg 196 86 0;
#X msg 150 192 bang;
#X obj 196 136 t f f f;
#X obj 215 167 * 0.2;
#X obj 150 167 moses 9;
#N canvas 0 0 450 300 (subpatch) 0;
#X array BLA 10 float 3;
#A 0 0 0.2 0.4 0.6 0.8 1 1.2 1.4 1.6 1.8;
#X coords 0 1 9 -1 200 140 1;
#X restore -102 92 graph;
#X connect 1 0 2 1;
#X connect 2 0 5 0;
#X connect 3 0 2 0;
#X connect 4 0 2 0;
#X connect 5 0 7 0;
#X connect 5 1 6 0;
#X connect 5 2 0 1;
#X connect 5 2 1 0;
#X connect 6 0 0 0;
#X connect 7 0 4 0;
