#N canvas 296 118 951 636 10;
#X obj 185 93 hsl 128 15 0 1 0 1 empty empty empty -2 -8 0 10 -262144
-1 -1 2700 1;
#X obj 150 145 *~;
#X obj 111 117 osc~;
#X obj 140 577 dac~;
#X obj 111 92 nbx 5 14 -1e+37 1e+37 0 1 empty empty empty 0 -8 0 10
-262144 -1 -1 400 256;
#X obj 191 145 tgl 15 1 empty empty empty 17 7 0 10 -262144 -1 -1 1
1;
#X obj 149 181 *~;
#X obj 148 272 *~;
#X obj 206 192 bng 15 250 50 1 empty empty empty 17 7 0 10 -262144
-1 -1;
#X msg 206 213 1;
#X obj 147 386 *~;
#X obj 207 281 hradio 15 1 1 8 empty empty empty 0 -8 0 10 -262144
-1 -1 2;
#X obj 207 306 sel 2;
#X msg 207 332 1;
#X obj 284 368 vu 15 120 empty empty -1 -8 0 10 -66577 -1 1 0;
#X obj 148 512 *~;
#X obj 283 311 loadbang;
#X floatatom 206 238 5 0 0 0 - - -;
#X floatatom 207 356 5 0 0 0 - - -;
#X floatatom 182 117 5 0 0 0 - - -;
#X floatatom 283 500 5 0 0 0 - - -;
#X msg 283 339 1;
#X text 360 87 All these controls are absolutely useless \, but they
are all there just to test that they work and that we have sound at
the end of the chain...;
#X connect 0 0 19 0;
#X connect 1 0 6 0;
#X connect 2 0 1 0;
#X connect 4 0 2 0;
#X connect 5 0 6 1;
#X connect 6 0 7 0;
#X connect 7 0 10 0;
#X connect 8 0 9 0;
#X connect 9 0 17 0;
#X connect 10 0 15 0;
#X connect 11 0 12 0;
#X connect 12 0 13 0;
#X connect 13 0 18 0;
#X connect 14 0 20 0;
#X connect 15 0 3 0;
#X connect 15 0 3 1;
#X connect 16 0 21 0;
#X connect 17 0 7 1;
#X connect 18 0 10 1;
#X connect 19 0 1 1;
#X connect 20 0 15 1;
#X connect 21 0 14 0;
