#N canvas 49 54 1317 714 10;
#X obj 100 101 * 1;
#X obj 144 102 * 2;
#X obj 133 487 *~ 1;
#X obj 214 488 *~ 0.5;
#X obj 169 488 *~ 0.7;
#X obj 258 489 *~ 0.4;
#X obj 304 488 *~ 0.3;
#X obj 352 488 *~ 0.25;
#X obj 405 487 *~ 0.2;
#X obj 453 488 *~ 0.1;
#X obj 650 685 *~;
#X obj 20 335 -;
#X msg 20 312 100;
#X obj 20 287 t b f;
#X obj 20 359 - 50;
#X obj 20 382 * 3;
#X obj 1003 258 -;
#X obj 1003 209 t b f;
#X msg 1003 235 202.5;
#X obj 1082 260 -;
#X obj 1082 211 t b f;
#X msg 1082 237 202.5;
#X obj 1158 260 -;
#X obj 1158 211 t b f;
#X msg 1158 237 202.5;
#X obj 650 728 *~ 10;
#X obj 371 71 send \$0-pitch;
#X obj 1026 162 receive \$0-pitch;
#X obj 217 28 sel 0;
#N canvas 179 136 795 575 drunkard 0;
#X obj -181 10 inlet;
#X obj 34 207 drunk;
#X obj 235 145 drunk;
#X obj 184 42 loadbang;
#X obj -181 242 drunk;
#X msg -168 220 30;
#X msg 47 185 15;
#X msg 248 123 8;
#X floatatom -172 289 5 0 0 0 - - -;
#X obj -181 264 / 100;
#X obj 34 228 / 100;
#X obj 235 167 / 100;
#X floatatom 43 253 5 0 0 0 - - -;
#X floatatom 244 191 5 0 0 0 - - -;
#X obj -74 250 drunk;
#X floatatom -74 296 5 0 0 0 - - -;
#X obj 126 221 drunk;
#X floatatom 126 266 5 0 0 0 - - -;
#X obj 335 157 drunk;
#X floatatom 335 202 5 0 0 0 - - -;
#X obj -181 349 pack \$1 \$2;
#X obj 34 311 pack \$1 \$2;
#X obj 235 241 pack \$1 \$2;
#X obj -181 374 outlet;
#X obj 34 333 outlet;
#X obj 235 262 outlet;
#X msg 348 135 1000;
#X obj -74 269 + 499;
#X obj 126 240 + 499;
#X obj 335 176 + 499;
#X msg 383 135 500;
#X obj -181 35 metro 2000;
#X obj -74 201 metro 1500;
#X obj 126 172 metro 1500;
#X obj 335 108 metro 1500;
#X msg 139 199 1500;
#X msg 174 199 500;
#X msg -26 228 500;
#X msg -61 228 1500;
#X text -174 305 amplitude;
#X text -76 312 time ramp;
#X text 41 268 amplitude;
#X text 126 282 time ramp;
#X text 242 207 amplitude;
#X text 334 219 time ramp;
#X msg -139 220 15;
#X msg 82 185 8;
#X msg 283 123 4;
#X text -9 380 maybe if pipe width > x \, then amp is lower?;
#X connect 0 0 31 0;
#X connect 0 0 32 0;
#X connect 0 0 33 0;
#X connect 0 0 34 0;
#X connect 1 0 10 0;
#X connect 2 0 11 0;
#X connect 3 0 5 0;
#X connect 3 0 45 0;
#X connect 3 0 6 0;
#X connect 3 0 46 0;
#X connect 3 0 7 0;
#X connect 3 0 47 0;
#X connect 3 0 26 0;
#X connect 3 0 30 0;
#X connect 3 0 35 0;
#X connect 3 0 36 0;
#X connect 3 0 38 0;
#X connect 3 0 37 0;
#X connect 4 0 9 0;
#X connect 5 0 4 1;
#X connect 6 0 1 1;
#X connect 7 0 2 1;
#X connect 9 0 8 0;
#X connect 9 0 20 0;
#X connect 10 0 12 0;
#X connect 10 0 21 0;
#X connect 11 0 13 0;
#X connect 11 0 22 0;
#X connect 14 0 27 0;
#X connect 16 0 28 0;
#X connect 18 0 29 0;
#X connect 20 0 23 0;
#X connect 21 0 24 0;
#X connect 22 0 25 0;
#X connect 26 0 18 1;
#X connect 27 0 15 0;
#X connect 27 0 20 1;
#X connect 28 0 17 0;
#X connect 28 0 21 1;
#X connect 29 0 19 0;
#X connect 29 0 22 1;
#X connect 30 0 18 2;
#X connect 31 0 1 0;
#X connect 31 0 2 0;
#X connect 31 0 4 0;
#X connect 32 0 14 0;
#X connect 33 0 16 0;
#X connect 34 0 18 0;
#X connect 35 0 16 1;
#X connect 36 0 16 2;
#X connect 37 0 14 2;
#X connect 38 0 14 1;
#X connect 45 0 4 2;
#X connect 46 0 1 2;
#X connect 47 0 2 2;
#X restore 855 449 pd drunkard;
#X obj 855 472 vline~;
#X obj 897 472 vline~;
#X obj 939 472 vline~;
#X obj 956 521 *~;
#X obj 1036 524 *~;
#X obj 1111 523 *~;
#X obj 855 385 loadbang;
#X msg 855 408 1;
#X obj 1004 297 / 300;
#X obj 988 323 *;
#X obj 1067 323 *;
#X obj 1143 323 *;
#X obj 1082 296 / 150;
#X obj 1159 292 / 100;
#X obj 846 31 t b f;
#X msg 846 57 48;
#X obj 846 78 -;
#X obj 846 105 * 10;
#X obj 846 127 + 284;
#X obj 956 588 *~;
#X obj 970 566 line~;
#X msg 970 542 \$1 20;
#X obj 1037 590 *~;
#X obj 1051 568 line~;
#X msg 1051 544 \$1 20;
#X obj 1111 591 *~;
#X obj 1125 569 line~;
#X msg 1125 545 \$1 20;
#X obj 1111 445 r \$0-openClosed;
#X obj 650 707 lop~ 420;
#X obj 217 4 r \$0-frequency;
#X obj 649 752 dac~;
#X obj 91 331 vcf~ 100 370;
#X obj 169 331 vcf~ 100 370;
#X obj 244 331 vcf~ 100 370;
#X obj 392 331 vcf~ 100 370;
#X obj 319 332 vcf~ 100 370;
#X obj 467 331 vcf~ 100 370;
#X obj 541 331 vcf~ 100 370;
#X obj 613 330 vcf~ 100 370;
#X obj 957 406 vcf~ 100 370;
#X obj 1036 406 vcf~ 100 370;
#X obj 1112 406 vcf~ 100 370;
#X obj 629 234 pink~;
#X obj 154 456 * 0.005;
#X obj 209 456 * 0.004;
#X obj 389 456 * 0.0013;
#X obj 452 456 * 0.0008;
#X obj 514 456 * 0.0005;
#X obj 326 456 * 0.0018;
#X obj 264 456 * 0.0025;
#X obj 20 262 r \$0-diameter;
#X obj 749 4 r \$0-frequency;
#X obj 846 4 r \$0-diameter;
#X obj 100 145 line~;
#X obj 144 145 line~;
#X obj 193 145 line~;
#X obj 242 144 line~;
#X obj 291 144 line~;
#X obj 335 145 line~;
#X obj 380 145 line~;
#X obj 432 145 line~;
#X msg 100 123 \$1 20;
#X msg 144 124 \$1 20;
#X msg 193 124 \$1 20;
#X msg 242 123 \$1 20;
#X msg 291 123 \$1 20;
#X msg 335 123 \$1 20;
#X msg 380 123 \$1 20;
#X obj 193 102 * 3;
#X obj 242 102 * 4;
#X obj 291 102 * 5;
#X obj 335 102 * 6;
#X obj 380 102 * 7;
#X msg 432 123 \$1 20;
#X obj 432 102 * 8;
#X obj 749 32 change;
#X obj 749 57 sel 0;
#X msg 730 232 0 847.4;
#X msg 798 232 1 \$1;
#X obj 849 185 del;
#X msg 849 232 0.627 313.5;
#X obj 826 264 line~;
#X obj 792 151 f 223.7;
#X msg 776 96 bang;
#X obj 988 383 line~;
#X obj 1067 383 line~;
#X obj 1143 383 line~;
#X msg 988 353 \$1 20;
#X msg 1067 354 \$1 20;
#X msg 1143 353 \$1 20;
#X floatatom 502 30 5 0 0 0 - - -;
#X obj 502 54 s \$0-frequency;
#X floatatom 543 31 5 0 0 0 - - -;
#X obj 543 76 s \$0-diameter;
#X obj 605 33 tgl 15 0 empty empty empty 17 7 0 10 -262144 -1 -1 0
1;
#X obj 589 100 s \$0-openClosed;
#X msg 484 11 0;
#X connect 0 0 92 0;
#X connect 1 0 93 0;
#X connect 2 0 10 0;
#X connect 3 0 10 0;
#X connect 4 0 10 0;
#X connect 5 0 10 0;
#X connect 6 0 10 0;
#X connect 7 0 10 0;
#X connect 8 0 10 0;
#X connect 9 0 10 0;
#X connect 10 0 59 0;
#X connect 11 0 14 0;
#X connect 12 0 11 0;
#X connect 13 0 12 0;
#X connect 13 1 11 1;
#X connect 14 0 15 0;
#X connect 15 0 74 0;
#X connect 15 0 75 0;
#X connect 15 0 80 0;
#X connect 15 0 79 0;
#X connect 15 0 76 0;
#X connect 15 0 77 0;
#X connect 15 0 78 0;
#X connect 16 0 39 0;
#X connect 16 0 38 0;
#X connect 17 0 18 0;
#X connect 17 1 16 1;
#X connect 18 0 16 0;
#X connect 19 0 42 0;
#X connect 19 0 40 0;
#X connect 20 0 21 0;
#X connect 20 1 19 1;
#X connect 21 0 19 0;
#X connect 22 0 43 0;
#X connect 22 0 41 0;
#X connect 23 0 24 0;
#X connect 23 1 22 1;
#X connect 24 0 22 0;
#X connect 25 0 61 0;
#X connect 25 0 61 1;
#X connect 27 0 17 0;
#X connect 27 0 20 0;
#X connect 27 0 23 0;
#X connect 28 1 26 0;
#X connect 28 1 0 0;
#X connect 28 1 1 0;
#X connect 28 1 99 0;
#X connect 28 1 100 0;
#X connect 28 1 101 0;
#X connect 28 1 102 0;
#X connect 28 1 103 0;
#X connect 28 1 105 0;
#X connect 29 0 30 0;
#X connect 29 1 31 0;
#X connect 29 2 32 0;
#X connect 30 0 33 1;
#X connect 31 0 34 1;
#X connect 32 0 35 1;
#X connect 33 0 49 0;
#X connect 34 0 52 0;
#X connect 35 0 55 0;
#X connect 36 0 37 0;
#X connect 37 0 29 0;
#X connect 38 0 39 1;
#X connect 39 0 118 0;
#X connect 40 0 119 0;
#X connect 41 0 120 0;
#X connect 42 0 40 1;
#X connect 43 0 41 1;
#X connect 44 0 45 0;
#X connect 44 1 46 1;
#X connect 45 0 46 0;
#X connect 46 0 47 0;
#X connect 47 0 48 0;
#X connect 48 0 113 1;
#X connect 49 0 10 0;
#X connect 50 0 49 1;
#X connect 51 0 50 0;
#X connect 52 0 10 0;
#X connect 53 0 52 1;
#X connect 54 0 53 0;
#X connect 55 0 10 0;
#X connect 56 0 55 1;
#X connect 57 0 56 0;
#X connect 58 0 51 0;
#X connect 58 0 54 0;
#X connect 58 0 57 0;
#X connect 59 0 25 0;
#X connect 60 0 28 0;
#X connect 62 0 2 0;
#X connect 63 0 4 0;
#X connect 64 0 3 0;
#X connect 65 0 6 0;
#X connect 66 0 5 0;
#X connect 67 0 7 0;
#X connect 68 0 8 0;
#X connect 69 0 9 0;
#X connect 70 0 33 0;
#X connect 71 0 34 0;
#X connect 72 0 35 0;
#X connect 73 0 62 0;
#X connect 73 0 63 0;
#X connect 73 0 64 0;
#X connect 73 0 65 0;
#X connect 73 0 66 0;
#X connect 73 0 67 0;
#X connect 73 0 68 0;
#X connect 73 0 69 0;
#X connect 73 0 70 0;
#X connect 73 0 71 0;
#X connect 73 0 72 0;
#X connect 74 0 4 1;
#X connect 75 0 3 1;
#X connect 76 0 7 1;
#X connect 77 0 8 1;
#X connect 78 0 9 1;
#X connect 79 0 6 1;
#X connect 80 0 5 1;
#X connect 81 0 13 0;
#X connect 82 0 106 0;
#X connect 83 0 44 0;
#X connect 84 0 62 1;
#X connect 85 0 63 1;
#X connect 86 0 64 1;
#X connect 87 0 66 1;
#X connect 88 0 65 1;
#X connect 89 0 67 1;
#X connect 90 0 68 1;
#X connect 91 0 69 1;
#X connect 92 0 84 0;
#X connect 93 0 85 0;
#X connect 94 0 86 0;
#X connect 95 0 87 0;
#X connect 96 0 88 0;
#X connect 97 0 89 0;
#X connect 98 0 90 0;
#X connect 99 0 94 0;
#X connect 100 0 95 0;
#X connect 101 0 96 0;
#X connect 102 0 97 0;
#X connect 103 0 98 0;
#X connect 104 0 91 0;
#X connect 105 0 104 0;
#X connect 106 0 107 0;
#X connect 107 0 108 0;
#X connect 107 1 114 0;
#X connect 108 0 112 0;
#X connect 109 0 112 0;
#X connect 110 0 111 0;
#X connect 111 0 112 0;
#X connect 112 0 10 1;
#X connect 113 0 109 0;
#X connect 113 0 110 0;
#X connect 114 0 113 0;
#X connect 115 0 70 1;
#X connect 116 0 71 1;
#X connect 117 0 72 1;
#X connect 118 0 115 0;
#X connect 119 0 116 0;
#X connect 120 0 117 0;
#X connect 121 0 122 0;
#X connect 123 0 124 0;
#X connect 125 0 126 0;
#X connect 127 0 122 0;
