#N canvas 49 54 1317 714 10;
#X obj 100 101 * 1;
#X obj 144 102 * 2;
#X obj 133 487 *~ 1;
#X obj 214 488 *~ 0.5;
#X obj 169 488 *~ 0.7;
#X obj 258 489 *~ 0.4;
#X obj 304 488 *~ 0.3;
#X obj 352 488 *~ 0.25;
#X obj 405 487 *~ 0.2;
#X obj 453 488 *~ 0.1;
#X obj 650 626 *~;
#X obj 20 335 -;
#X msg 20 312 100;
#X obj 20 287 t b f;
#X obj 20 359 - 50;
#X obj 20 382 * 3;
#X obj 650 671 *~ 10;
#X obj 371 71 send \$0-pitch;
#X obj 217 28 sel 0;
#X obj 864 143 t b f;
#X msg 864 169 48;
#X obj 864 190 -;
#X obj 864 217 * 10;
#X obj 864 239 + 284;
#X obj 650 648 lop~ 420;
#X obj 217 4 r \$0-frequency;
#X obj 649 695 dac~;
#X obj 91 331 vcf~ 100 370;
#X obj 169 331 vcf~ 100 370;
#X obj 244 331 vcf~ 100 370;
#X obj 392 331 vcf~ 100 370;
#X obj 319 332 vcf~ 100 370;
#X obj 467 331 vcf~ 100 370;
#X obj 541 331 vcf~ 100 370;
#X obj 613 330 vcf~ 100 370;
#X obj 629 234 pink~;
#X obj 154 456 * 0.005;
#X obj 209 456 * 0.004;
#X obj 389 456 * 0.0013;
#X obj 452 456 * 0.0008;
#X obj 514 456 * 0.0005;
#X obj 326 456 * 0.0018;
#X obj 264 456 * 0.0025;
#X obj 20 262 r \$0-diameter;
#X obj 767 116 r \$0-frequency;
#X obj 864 116 r \$0-diameter;
#X obj 100 145 line~;
#X obj 144 145 line~;
#X obj 193 145 line~;
#X obj 242 144 line~;
#X obj 291 144 line~;
#X obj 335 145 line~;
#X obj 380 145 line~;
#X obj 432 145 line~;
#X msg 100 123 \$1 20;
#X msg 144 124 \$1 20;
#X msg 193 124 \$1 20;
#X msg 242 123 \$1 20;
#X msg 291 123 \$1 20;
#X msg 335 123 \$1 20;
#X msg 380 123 \$1 20;
#X obj 193 102 * 3;
#X obj 242 102 * 4;
#X obj 291 102 * 5;
#X obj 335 102 * 6;
#X obj 380 102 * 7;
#X msg 432 123 \$1 20;
#X obj 432 102 * 8;
#X obj 767 144 change;
#X obj 767 169 sel 0;
#X msg 748 344 0 847.4;
#X msg 816 344 1 \$1;
#X obj 867 297 del;
#X msg 867 344 0.627 313.5;
#X obj 844 376 line~;
#X obj 810 263 f 223.7;
#X msg 794 208 bang;
#X connect 0 0 54 0;
#X connect 1 0 55 0;
#X connect 2 0 10 0;
#X connect 3 0 10 0;
#X connect 4 0 10 0;
#X connect 5 0 10 0;
#X connect 6 0 10 0;
#X connect 7 0 10 0;
#X connect 8 0 10 0;
#X connect 9 0 10 0;
#X connect 10 0 24 0;
#X connect 11 0 14 0;
#X connect 12 0 11 0;
#X connect 13 0 12 0;
#X connect 13 1 11 1;
#X connect 14 0 15 0;
#X connect 15 0 36 0;
#X connect 15 0 37 0;
#X connect 15 0 42 0;
#X connect 15 0 41 0;
#X connect 15 0 38 0;
#X connect 15 0 39 0;
#X connect 15 0 40 0;
#X connect 16 0 26 0;
#X connect 16 0 26 1;
#X connect 18 1 17 0;
#X connect 18 1 0 0;
#X connect 18 1 1 0;
#X connect 18 1 61 0;
#X connect 18 1 62 0;
#X connect 18 1 63 0;
#X connect 18 1 64 0;
#X connect 18 1 65 0;
#X connect 18 1 67 0;
#X connect 19 0 20 0;
#X connect 19 1 21 1;
#X connect 20 0 21 0;
#X connect 21 0 22 0;
#X connect 22 0 23 0;
#X connect 23 0 75 1;
#X connect 24 0 16 0;
#X connect 25 0 18 0;
#X connect 27 0 2 0;
#X connect 28 0 4 0;
#X connect 29 0 3 0;
#X connect 30 0 6 0;
#X connect 31 0 5 0;
#X connect 32 0 7 0;
#X connect 33 0 8 0;
#X connect 34 0 9 0;
#X connect 35 0 27 0;
#X connect 35 0 28 0;
#X connect 35 0 29 0;
#X connect 35 0 30 0;
#X connect 35 0 31 0;
#X connect 35 0 32 0;
#X connect 35 0 33 0;
#X connect 35 0 34 0;
#X connect 36 0 4 1;
#X connect 37 0 3 1;
#X connect 38 0 7 1;
#X connect 39 0 8 1;
#X connect 40 0 9 1;
#X connect 41 0 6 1;
#X connect 42 0 5 1;
#X connect 43 0 13 0;
#X connect 44 0 68 0;
#X connect 45 0 19 0;
#X connect 46 0 27 1;
#X connect 47 0 28 1;
#X connect 48 0 29 1;
#X connect 49 0 31 1;
#X connect 50 0 30 1;
#X connect 51 0 32 1;
#X connect 52 0 33 1;
#X connect 53 0 34 1;
#X connect 54 0 46 0;
#X connect 55 0 47 0;
#X connect 56 0 48 0;
#X connect 57 0 49 0;
#X connect 58 0 50 0;
#X connect 59 0 51 0;
#X connect 60 0 52 0;
#X connect 61 0 56 0;
#X connect 62 0 57 0;
#X connect 63 0 58 0;
#X connect 64 0 59 0;
#X connect 65 0 60 0;
#X connect 66 0 53 0;
#X connect 67 0 66 0;
#X connect 68 0 69 0;
#X connect 69 0 70 0;
#X connect 69 1 76 0;
#X connect 70 0 74 0;
#X connect 71 0 74 0;
#X connect 72 0 73 0;
#X connect 73 0 74 0;
#X connect 74 0 10 1;
#X connect 75 0 71 0;
#X connect 75 0 72 0;
#X connect 76 0 75 0;
