#N canvas 372 320 656 300 10;
#X obj 147 35 r metroTime;
#X obj 90 70 metro 1000;
#X obj 64 35 loadbang;
#X obj 68 239 *~;
#X obj 90 150 % 2;
#X obj 90 99 f;
#X obj 120 103 + 1;
#X floatatom 90 124 5 0 0 0 - - -, f 5;
#X floatatom 90 179 5 0 0 0 - - -, f 5;
#X obj 68 204 osc~ 330;
#X obj 68 265 dac~;
#X connect 0 0 1 1;
#X connect 1 0 5 0;
#X connect 2 0 1 0;
#X connect 3 0 10 0;
#X connect 3 0 10 1;
#X connect 4 0 8 0;
#X connect 5 0 6 0;
#X connect 5 0 7 0;
#X connect 6 0 5 1;
#X connect 7 0 4 0;
#X connect 8 0 3 1;
#X connect 9 0 3 0;
