#N canvas 393 278 656 369 10;
#X obj 147 35 r metroTime;
#X obj 129 91 metro 1000;
#X obj 64 35 loadbang;
#X obj 107 256 *~;
#X obj 129 167 % 2;
#X obj 129 116 f;
#X obj 159 120 + 1;
#X floatatom 129 141 5 0 0 0 - - -;
#X floatatom 129 196 5 0 0 0 - - -;
#X obj 107 221 osc~ 330;
#X obj 107 282 dac~;
#X obj 182 247 s metroTime;
#X msg 182 221 200;
#X msg 217 221 500;
#X obj 182 167 % 50;
#X obj 182 196 sel 0 25;
#X connect 0 0 1 1;
#X connect 1 0 5 0;
#X connect 2 0 1 0;
#X connect 3 0 10 0;
#X connect 3 0 10 1;
#X connect 4 0 8 0;
#X connect 5 0 6 0;
#X connect 5 0 7 0;
#X connect 6 0 5 1;
#X connect 7 0 4 0;
#X connect 7 0 14 0;
#X connect 8 0 3 1;
#X connect 9 0 3 0;
#X connect 12 0 11 0;
#X connect 13 0 11 0;
#X connect 14 0 15 0;
#X connect 15 0 12 0;
#X connect 15 1 13 0;
