#N canvas 227 194 450 300 12;
#X obj 13 56 abs~;
#X obj 13 113 dac~;
#X obj 24 87 *~;
#X obj 56 56 osc~ 440;
#X obj 13 6 phasor~ 1;
#X obj 13 31 -~ 1;
#X connect 0 0 2 0;
#X connect 2 0 1 0;
#X connect 2 0 1 1;
#X connect 3 0 2 1;
#X connect 4 0 5 0;
#X connect 5 0 0 0;
