#N canvas -588 31 340 300 12;
#X obj 94 147 print;
#X obj 61 28 bng 15 250 50 0 empty empty empty 17 7 0 10 -262144 -1
-1;
#X obj 7 27 r test;
#X obj 6 5 loadbang;
#X msg 42 76 0;
#X obj 7 52 t b b b b b b;
#X msg 75 76 1.45;
#X msg 117 75 -1.45;
#X msg 223 74 -53.457;
#X msg 7 77 53.3;
#X msg 171 74 20.1;
#X obj 95 122 atan2;
#X connect 1 0 5 0;
#X connect 2 0 5 0;
#X connect 3 0 5 0;
#X connect 4 0 11 0;
#X connect 5 0 9 0;
#X connect 5 1 4 0;
#X connect 5 2 6 0;
#X connect 5 3 7 0;
#X connect 5 4 10 0;
#X connect 5 5 8 0;
#X connect 6 0 11 0;
#X connect 7 0 11 0;
#X connect 8 0 11 1;
#X connect 9 0 11 0;
#X connect 10 0 11 0;
#X connect 11 0 0 0;
