#N canvas 403 283 450 300 12;
#X obj 10 172 bang;
#X obj 129 170 bng 15 250 50 0 empty empty empty 17 7 0 10 -262144
-1 -1;
#X obj 10 197 print bang;
#X obj 129 195 print bng;
#X obj 129 56 t b b b b;
#X msg 175 103 42;
#X obj 152 127 f 15;
#X obj 60 5 r test;
#X obj 60 30 t b b;
#X obj 10 58 t b b b b;
#X msg 56 105 42;
#X obj 33 129 f 15;
#X msg 79 83 click;
#X msg 198 81 click;
#X connect 0 0 2 0;
#X connect 1 0 3 0;
#X connect 4 0 1 0;
#X connect 4 1 6 0;
#X connect 4 2 5 0;
#X connect 4 3 13 0;
#X connect 5 0 1 0;
#X connect 6 0 1 0;
#X connect 7 0 8 0;
#X connect 8 0 9 0;
#X connect 8 1 4 0;
#X connect 9 0 0 0;
#X connect 9 1 11 0;
#X connect 9 2 10 0;
#X connect 9 3 12 0;
#X connect 10 0 0 0;
#X connect 11 0 0 0;
#X connect 12 0 0 0;
#X connect 13 0 1 0;
