#N canvas 629 0 450 300 12;
#X obj 19 10 loadbang;
#X obj 19 35 t b b b b b;
#X obj 19 87 change;
#X obj 19 112 print;
#X msg 19 59 3;
#X msg 91 58 4;
#X msg 128 58 4;
#X msg 54 59 3;
#X msg 166 57 3;
#X connect 0 0 1 0;
#X connect 1 0 4 0;
#X connect 1 1 7 0;
#X connect 1 2 5 0;
#X connect 1 3 6 0;
#X connect 1 4 8 0;
#X connect 2 0 3 0;
#X connect 4 0 2 0;
#X connect 5 0 2 0;
#X connect 6 0 2 0;
#X connect 7 0 2 0;
#X connect 8 0 2 0;
