#N canvas 73 27 450 300 12;
#X obj 93 144 print;
#X obj 28 15 loadbang;
#X obj 28 40 t b b b b b;
#X obj 93 119 clip;
#X msg 161 84 20;
#X msg 126 84 10;
#X msg 90 84 30;
#X msg 56 84 -5;
#X msg 20 84 15;
#X obj 106 18 bng 15 250 50 0 empty empty empty 17 7 0 10 -262144 -1
-1;
#X connect 1 0 2 0;
#X connect 2 0 8 0;
#X connect 2 1 7 0;
#X connect 2 2 6 0;
#X connect 2 3 5 0;
#X connect 2 4 4 0;
#X connect 3 0 0 0;
#X connect 4 0 3 2;
#X connect 5 0 3 1;
#X connect 6 0 3 0;
#X connect 7 0 3 0;
#X connect 8 0 3 0;
#X connect 9 0 2 0;
