#N canvas 447 106 450 300 12;
#X obj 7 31 *~ 100;
#X obj 7 6 osc~ 440;
#X obj 50 61 clip~;
#X obj 83 6 loadbang;
#X msg 83 32 -1;
#X msg 120 32 1;
#X obj 50 94 dac~;
#X connect 0 0 2 0;
#X connect 1 0 0 0;
#X connect 2 0 6 0;
#X connect 2 0 6 1;
#X connect 3 0 4 0;
#X connect 3 0 5 0;
#X connect 4 0 2 1;
#X connect 5 0 2 2;
