#N canvas 447 106 450 300 12;
#X obj 7 31 *~ 100;
#X obj 7 6 osc~ 440;
#X obj 8 85 dac~;
#X obj 8 57 clip~ -1 1;
#X connect 0 0 3 0;
#X connect 1 0 0 0;
#X connect 3 0 2 0;
#X connect 3 0 2 1;
