#N canvas 643 81 450 300 12;
#X obj 35 9 loadbang;
#X msg 120 57 17;
#X msg 51 58 6;
#X msg 17 58 17;
#X obj 17 222 print;
#X obj 35 34 t b b b b;
#X msg 86 57 42;
#X obj 114 192 >=;
#X obj 81 192 <=;
#X obj 49 192 >;
#X obj 17 192 <;
#X obj 120 82 t f f f f;
#X obj 86 109 t f f f f;
#X obj 51 136 t f f f f;
#X obj 17 162 t f f f f;
#X connect 0 0 5 0;
#X connect 1 0 11 0;
#X connect 2 0 13 0;
#X connect 3 0 14 0;
#X connect 5 0 3 0;
#X connect 5 1 2 0;
#X connect 5 2 6 0;
#X connect 5 3 1 0;
#X connect 6 0 12 0;
#X connect 7 0 4 0;
#X connect 8 0 4 0;
#X connect 9 0 4 0;
#X connect 10 0 4 0;
#X connect 11 0 10 1;
#X connect 11 1 9 1;
#X connect 11 2 8 1;
#X connect 11 3 7 1;
#X connect 12 0 10 0;
#X connect 12 1 9 0;
#X connect 12 2 8 0;
#X connect 12 3 7 0;
#X connect 13 0 10 0;
#X connect 13 1 9 0;
#X connect 13 2 8 0;
#X connect 13 3 7 0;
#X connect 14 0 10 0;
#X connect 14 1 9 0;
#X connect 14 2 8 0;
#X connect 14 3 7 0;
