#N canvas 379 293 450 300 12;
#X obj 8 5 r test;
#X obj 8 80 print;
#X obj 64 45 + 1;
#X obj 8 30 f 0;
#X obj 8 55 t f f;
#X connect 0 0 3 0;
#X connect 2 0 3 1;
#X connect 3 0 4 0;
#X connect 4 0 1 0;
#X connect 4 1 2 0;
