#N canvas 324 98 450 299 12;
#X obj 6 34 dbtorms~;
#X obj 7 8 sig~ 152.87;
#X obj 5 85 dac~;
#X obj 6 60 osc~;
#X text 44 61 about 440 hz;
#X connect 0 0 3 0;
#X connect 1 0 0 0;
#X connect 3 0 2 0;
#X connect 3 0 2 1;
