#N canvas 160 63 450 300 10;
#X obj 19 19 loadbang;
#X obj 19 107 f 23;
#X obj 19 128 print;
#X obj 19 40 t b b b;
#X msg 38 64 12;
#X msg 19 86 hello;
#X connect 0 0 3 0;
#X connect 1 0 2 0;
#X connect 3 0 5 0;
#X connect 3 1 4 0;
#X connect 3 2 1 0;
#X connect 4 0 1 0;
#X connect 5 0 1 0;
