#N canvas 160 63 450 300 10;
#X obj 19 19 loadbang;
#X obj 19 128 print;
#X obj 19 40 t b b b;
#X msg 38 64 12;
#X obj 19 107 f;
#X connect 0 0 2 0;
#X connect 2 0 4 0;
#X connect 2 1 3 0;
#X connect 2 2 4 1;
#X connect 3 0 4 1;
#X connect 4 0 1 0;
