#N canvas 115 81 450 300 10;

#X obj 13 10 loadbang;

#X msg 13 31 440;

#X obj 12 97 osc~;

#X obj 12 118 dac~;

#X obj 12 77 mtof~;

#X obj 13 54 ftom~;

#X connect 0 0 1 0;

#X connect 1 0 5 0;

#X connect 2 0 3 0;

#X connect 2 0 3 1;

#X connect 4 0 2 0;

#X connect 5 0 4 0;

