#N canvas 458 275 450 300 12;
#X obj 6 6 r test;
#X obj 6 31 t b b b b b;
#X msg 91 61 6.825;
#X msg 69 85 forty-two;
#X obj 48 134 / 10;
#X obj 48 109 random 100;
#X msg 27 159 9.825;
#X obj 6 185 i;
#X obj 6 210 print;
#X connect 0 0 1 0;
#X connect 1 0 7 0;
#X connect 1 1 6 0;
#X connect 1 2 5 0;
#X connect 1 3 3 0;
#X connect 1 4 2 0;
#X connect 2 0 7 0;
#X connect 3 0 7 0;
#X connect 4 0 7 0;
#X connect 5 0 4 0;
#X connect 6 0 7 1;
#X connect 7 0 8 0;
