#N canvas 87 110 450 300 10;
#X obj 89 21 loadbang;
#X msg 89 42 1 \, 0 200;
#X obj 89 63 line~;
#X obj 20 64 osc~ 440;
#X obj 20 107 *~;
#X obj 20 128 dac~;
#X connect 0 0 1 0;
#X connect 1 0 2 0;
#X connect 2 0 4 1;
#X connect 3 0 4 0;
#X connect 4 0 5 0;
#X connect 4 0 5 1;
