#N canvas 404 199 450 300 12;
#X obj 9 95 exp~;
#X obj 9 72 log~;
#X obj 10 7 sig~ 440;
#X obj 9 118 osc~;
#X obj 9 143 dac~;
#X obj 85 7 osc~ 1;
#X obj 84 52 +~ 2.5;
#X obj 85 29 *~ 0.3;
#X connect 0 0 3 0;
#X connect 1 0 0 0;
#X connect 2 0 1 0;
#X connect 3 0 4 0;
#X connect 3 0 4 1;
#X connect 5 0 7 0;
#X connect 6 0 1 1;
#X connect 7 0 6 0;
