#N canvas 404 199 450 300 12;
#X obj 10 61 exp~;
#X obj 10 35 log~;
#X obj 11 10 sig~ 440;
#X obj 11 87 osc~;
#X obj 11 118 dac~;
#X connect 0 0 3 0;
#X connect 1 0 0 0;
#X connect 2 0 1 0;
#X connect 3 0 4 0;
#X connect 3 0 4 1;
