#N canvas 342 215 450 300 10;
#X obj 10 11 sig~ 220;
#X obj 70 11 sig~ 440;
#X obj 34 36 max~;
#X obj 34 58 osc~;
#X obj 34 82 dac~;
#X connect 0 0 2 0;
#X connect 1 0 2 1;
#X connect 2 0 3 0;
#X connect 3 0 4 0;
#X connect 3 0 4 1;
