#N canvas 730 43 450 300 10;
#X obj 19 18 loadbang;
#X msg 19 77 42;
#X obj 19 130 print;
#X msg 62 77 3.14 ping pong;
#X msg 19 110 hello \$1 \$3 \$2 \$3 yo;
#X obj 19 47 t b b b;
#X msg 162 77 list a b c;
#X connect 0 0 5 0;
#X connect 1 0 4 0;
#X connect 3 0 4 0;
#X connect 4 0 2 0;
#X connect 5 0 1 0;
#X connect 5 1 3 0;
#X connect 5 2 6 0;
#X connect 6 0 4 0;
