#N canvas 730 43 450 300 10;
#X obj 19 18 loadbang;
#X obj 19 39 t b b;
#X msg 19 59 42;
#X obj 19 102 print;
#X msg 62 59 3.14 ping pong;
#X msg 19 82 hello \$1 \$3 \$2 \$3 yo;
#X connect 0 0 1 0;
#X connect 1 0 2 0;
#X connect 1 1 4 0;
#X connect 2 0 5 0;
#X connect 4 0 5 0;
#X connect 5 0 3 0;
