#N canvas 248 161 381 243 10;
#X obj 15 10 loadbang;
#X obj 74 10 loadbang;
#X obj 15 31 metro;
#X obj 74 31 metro 2;
#X obj 134 10 loadbang;
#X obj 134 31 metro 3;
#X obj 208 10 bang~;
#X msg 272 26 \; pd dsp 1 \;;
#X obj 272 4 loadbang;
#X obj 208 31 f;
#X obj 234 31 + 1;
#X msg 208 94 0;
#X obj 134 73 spigot 1;
#X obj 74 73 spigot 1;
#X obj 15 73 spigot 1;
#X obj 208 73 t b b;
#X msg 240 94 \; pd dsp 0 \;;
#X obj 272 64 block~ 128 0 0;
#X msg 15 52 bang;
#X msg 74 52 bang;
#X msg 134 52 bang;
#X obj 15 143 print one;
#X obj 74 143 print two;
#X obj 134 143 print three;
#X obj 208 52 sel 3;
#X connect 0 0 2 0;
#X connect 1 0 3 0;
#X connect 2 0 18 0;
#X connect 3 0 19 0;
#X connect 4 0 5 0;
#X connect 5 0 20 0;
#X connect 6 0 9 0;
#X connect 8 0 7 0;
#X connect 9 0 10 0;
#X connect 9 0 24 0;
#X connect 10 0 9 1;
#X connect 11 0 13 1;
#X connect 11 0 12 1;
#X connect 11 0 14 1;
#X connect 12 0 23 0;
#X connect 13 0 22 0;
#X connect 14 0 21 0;
#X connect 15 0 11 0;
#X connect 15 1 16 0;
#X connect 18 0 14 0;
#X connect 19 0 13 0;
#X connect 20 0 12 0;
#X connect 24 0 15 0;
