#N canvas 476 4 450 300 12;
#X msg 7 77 42;
#X obj 7 52 t b b b;
#X msg 75 76 42;
#X obj 7 112 min;
#X msg 42 76 12;
#X obj 7 137 print;
#X obj 61 28 bng 15 250 50 0 empty empty empty 17 7 0 10 -262144 -1
-1;
#X obj 7 27 r test;
#X obj 6 5 loadbang;
#X connect 0 0 3 0;
#X connect 1 0 0 0;
#X connect 1 1 4 0;
#X connect 1 2 2 0;
#X connect 2 0 3 1;
#X connect 3 0 5 0;
#X connect 4 0 3 0;
#X connect 6 0 1 0;
#X connect 7 0 1 0;
#X connect 8 0 1 0;
