#N canvas 115 81 450 300 10;
#X obj 23 23 loadbang;
#X msg 23 44 60;
#X obj 23 85 osc~;
#X obj 23 106 dac~;
#X obj 23 65 mtof~;
#X connect 0 0 1 0;
#X connect 1 0 4 0;
#X connect 2 0 3 0;
#X connect 2 0 3 1;
#X connect 4 0 2 0;
