#N canvas 641 66 450 300 12;
#X obj 56 76 mtof;
#X obj 56 101 print;
#X obj 20 -18 loadbang;
#X msg 92 42 0;
#X msg 128 41 -10;
#X msg 20 43 57;
#X msg 55 42 123;
#X obj 20 10 t b b b b b;
#X msg 166 40 fish;
#X connect 0 0 1 0;
#X connect 2 0 7 0;
#X connect 3 0 0 0;
#X connect 4 0 0 0;
#X connect 5 0 0 0;
#X connect 6 0 0 0;
#X connect 7 0 5 0;
#X connect 7 1 6 0;
#X connect 7 2 3 0;
#X connect 7 3 4 0;
#X connect 7 4 8 0;
#X connect 8 0 0 0;
