#N canvas 250 245 450 300 10;
#X obj 25 19 osc~ 0.5;
#X obj 25 40 *~ 100;
#X obj 25 61 +~ 440;
#X obj 25 82 osc~;
#X obj 25 103 dac~;
#X connect 0 0 1 0;
#X connect 1 0 2 0;
#X connect 2 0 3 0;
#X connect 2 0 3 1;
#X connect 3 0 4 0;
#X connect 3 0 4 1;
