#N canvas 705 116 450 300 10;
#X obj 21 19 loadbang;
#X msg 21 71 hello;
#X msg 174 71 11 one two;
#X msg 101 71 a 1 2 3 4;
#X obj 21 40 t b b b b b;
#X msg 64 71 13;
#X obj 21 128 print;
#X obj 156 29 t b b b;
#X msg 156 50 a;
#X msg 186 50 11;
#X msg 216 50 42;
#X obj 21 101 pack s f 0 wookie s f;
#X connect 0 0 4 0;
#X connect 1 0 11 0;
#X connect 2 0 11 0;
#X connect 3 0 11 0;
#X connect 4 0 1 0;
#X connect 4 1 5 0;
#X connect 4 2 3 0;
#X connect 4 3 2 0;
#X connect 4 4 7 0;
#X connect 5 0 11 0;
#X connect 7 0 8 0;
#X connect 7 1 9 0;
#X connect 7 2 10 0;
#X connect 8 0 11 0;
#X connect 9 0 11 1;
#X connect 10 0 11 2;
#X connect 11 0 6 0;
