#N canvas -588 31 340 300 12;
#X obj 106 165 print;
#X obj 61 28 bng 15 250 50 0 empty empty empty 17 7 0 10 -262144 -1
-1;
#X obj 7 27 r test;
#X obj 6 5 loadbang;
#X msg 40 78 0;
#X obj 7 52 t b b b b b b;
#X msg 115 77 -1.45;
#X msg 5 79 53.3;
#X msg 169 76 20.1;
#X msg 221 76 2;
#X obj 107 140 pow;
#X msg 73 78 1.45;
#X connect 1 0 5 0;
#X connect 2 0 5 0;
#X connect 3 0 5 0;
#X connect 4 0 10 0;
#X connect 5 0 7 0;
#X connect 5 1 4 0;
#X connect 5 2 11 0;
#X connect 5 3 6 0;
#X connect 5 4 8 0;
#X connect 5 5 9 0;
#X connect 6 0 10 0;
#X connect 7 0 10 0;
#X connect 8 0 10 0;
#X connect 9 0 10 1;
#X connect 10 0 0 0;
#X connect 11 0 10 0;
