#N canvas 448 279 450 300 12;
#X obj 8 84 osc~;
#X obj 8 113 dac~;
#X obj 9 57 powtodb~;
#X obj 8 33 dbtopow~;
#X obj 7 8 sig~ 440;
#X connect 0 0 1 0;
#X connect 0 0 1 1;
#X connect 2 0 0 0;
#X connect 3 0 2 0;
#X connect 4 0 3 0;
