#N canvas 321 293 450 300 12;
#X obj 9 4 r test;
#X obj 9 83 random;
#X obj 72 83 random 10;
#X obj 151 82 random;
#X obj 9 29 t b b b b;
#X msg 173 55 50;
#X obj 151 107 print 1;
#X obj 72 108 print 2;
#X obj 9 108 print 3;
#X connect 0 0 4 0;
#X connect 1 0 8 0;
#X connect 2 0 7 0;
#X connect 3 0 6 0;
#X connect 4 0 1 0;
#X connect 4 1 2 0;
#X connect 4 2 3 0;
#X connect 4 3 5 0;
#X connect 5 0 3 1;
