#N canvas 200 129 450 300 12;
#X obj 9 31 rmstodb~;
#X obj 9 56 dbtorms~;
#X obj 8 6 sig~ 440;
#X obj 10 79 osc~;
#X obj 11 105 dac~;
#X connect 0 0 1 0;
#X connect 1 0 3 0;
#X connect 2 0 0 0;
#X connect 3 0 4 0;
#X connect 3 0 4 1;
