#N canvas 476 4 450 300 12;
#X obj 7 137 print;
#X obj 61 28 bng 15 250 50 0 empty empty empty 17 7 0 10 -262144 -1
-1;
#X obj 7 27 r test;
#X obj 6 5 loadbang;
#X msg 7 77 -1;
#X msg 42 76 0;
#X msg 75 76 1;
#X msg 113 78 10;
#X msg 148 77 100;
#X msg 181 77 1000;
#X obj 7 52 t b b b b b b;
#X obj 7 112 rmstodb;
#X connect 1 0 10 0;
#X connect 2 0 10 0;
#X connect 3 0 10 0;
#X connect 4 0 11 0;
#X connect 5 0 11 0;
#X connect 6 0 11 0;
#X connect 7 0 11 0;
#X connect 8 0 11 0;
#X connect 9 0 11 0;
#X connect 10 0 4 0;
#X connect 10 1 5 0;
#X connect 10 2 6 0;
#X connect 10 3 7 0;
#X connect 10 4 8 0;
#X connect 10 5 9 0;
#X connect 11 0 0 0;
