#N canvas 316 209 450 300 12;
#X obj 12 -25 loadbang;
#X msg 12 25 1;
#X obj 35 51 f 1;
#X obj 12 0 t b b b b;
#X msg 58 25 2;
#X obj 81 51 f 2;
#X obj 12 82 route 1 7;
#X obj 12 107 print 1;
#X obj 12 129 print 7;
#X obj 12 151 print reject;
#X connect 0 0 3 0;
#X connect 1 0 6 0;
#X connect 2 0 6 0;
#X connect 3 0 1 0;
#X connect 3 1 2 0;
#X connect 3 2 4 0;
#X connect 3 3 5 0;
#X connect 4 0 6 0;
#X connect 5 0 6 0;
#X connect 6 0 7 0;
#X connect 6 1 8 0;
#X connect 6 2 9 0;
