#N canvas 316 209 450 300 12;
#X obj 12 -25 loadbang;
#X obj 12 0 t b b b b;
#X obj 81 51 f 2;
#X obj 12 169 print reject;
#X msg 13 25 horn;
#X obj 12 82 route shoe horn hat;
#X obj 12 107 print shoe;
#X obj 12 128 print horn;
#X obj 12 148 print hat;
#X msg 58 25 shoe horn;
#X msg 35 52 drum;
#X connect 0 0 1 0;
#X connect 1 0 4 0;
#X connect 1 1 10 0;
#X connect 1 2 9 0;
#X connect 1 3 2 0;
#X connect 2 0 5 0;
#X connect 4 0 5 0;
#X connect 5 0 6 0;
#X connect 5 1 7 0;
#X connect 5 2 8 0;
#X connect 5 3 3 0;
#X connect 9 0 5 0;
#X connect 10 0 5 0;
