#N canvas 317 280 450 300 12;
#X obj 16 14 noise~;
#X obj 15 37 samphold~;
#X obj 15 87 +~ 440;
#X obj 15 112 osc~;
#X obj 15 137 dac~;
#X obj 15 62 *~ 200;
#X obj 239 210 loadbang;
#X msg 239 235 Big Bucks \, No Whammy!!;
#X obj 239 261 print;
#X obj 84 14 phasor~ 6;
#X connect 0 0 1 0;
#X connect 1 0 5 0;
#X connect 2 0 3 0;
#X connect 3 0 4 0;
#X connect 3 0 4 1;
#X connect 5 0 2 0;
#X connect 6 0 7 0;
#X connect 7 0 8 0;
#X connect 9 0 1 1;
