#N canvas 381 230 450 300 12;
#X obj 10 8 loadbang;
#X msg 10 33 3 \, 5 \, cat \, gimp leg;
#X obj 10 58 sel 5;
#X obj 10 83 print selected;
#X obj 11 106 print unselected;
#X connect 0 0 1 0;
#X connect 1 0 2 0;
#X connect 2 0 3 0;
#X connect 2 1 4 0;
