#N canvas 381 230 450 300 12;
#X obj 10 8 loadbang;
#X obj 10 83 print A;
#X obj 10 105 print B;
#X obj 10 127 print Reject;
#X msg 10 33 3 \, 5 \, 7;
#X obj 10 57 sel 5 3;
#X connect 0 0 4 0;
#X connect 4 0 5 0;
#X connect 5 0 1 0;
#X connect 5 1 2 0;
#X connect 5 2 3 0;
