#N canvas 408 231 450 300 10;
#X obj -151 12 sig~ 440;
#X obj -152 33 osc~;
#X obj -152 59 dac~;
#X obj -93 33 osc~;
#X obj -92 12 sig~ 330;
#X obj -94 58 dac~;
#X connect 0 0 1 0;
#X connect 1 0 2 0;
#X connect 1 0 2 1;
#X connect 3 0 5 0;
#X connect 3 0 5 1;
#X connect 4 0 3 0;
