#N canvas 599 -7 450 336 12;
#X obj 39 11 loadbang;
#X obj 39 34 t b b;
#X obj 96 63 t b b;
#X obj 19 62 t b b;
#X obj 93 118 spigot;
#X obj 16 117 spigot;
#X msg 134 91 0;
#X msg 53 90 1;
#X obj 16 142 print A;
#X obj 93 143 print B;
#X connect 0 0 1 0;
#X connect 1 0 3 0;
#X connect 1 1 2 0;
#X connect 2 0 4 0;
#X connect 2 1 6 0;
#X connect 3 0 5 0;
#X connect 3 1 7 0;
#X connect 4 0 9 0;
#X connect 5 0 8 0;
#X connect 6 0 4 1;
#X connect 7 0 5 1;
