#N canvas 427 292 450 300 12;
#X obj 16 5 loadbang;
#X obj 16 53 t b b;
#X obj 16 101 spigot;
#X obj 16 126 print 1;
#X msg 53 77 1;
#X obj 16 28 t b b;
#X obj 93 54 t b b;
#X obj 93 102 spigot;
#X obj 93 127 print 2;
#X msg 130 78 0;
#X connect 0 0 5 0;
#X connect 1 0 2 0;
#X connect 1 1 4 0;
#X connect 2 0 3 0;
#X connect 4 0 2 1;
#X connect 5 0 1 0;
#X connect 5 1 6 0;
#X connect 6 0 7 0;
#X connect 6 1 9 0;
#X connect 7 0 8 0;
#X connect 9 0 7 1;
