#N canvas 109 18 450 300 12;
#X obj 133 114 swap;
#X obj 133 139 print Left;
#X obj 133 162 print Right;
#X obj 133 60 loadbang;
#X msg 133 85 10 14;
#X obj 209 60 bng 15 250 50 0 empty empty empty 17 7 0 10 -262144 -1
-1;
#X connect 0 0 1 0;
#X connect 0 1 2 0;
#X connect 3 0 4 0;
#X connect 4 0 0 0;
#X connect 5 0 4 0;
