#N canvas 285 233 450 300 10;
#X obj 26 23 loadbang;
#X obj 26 111 print;
#X msg 26 44 42;
#X obj 26 64 t a s b f a;
#X connect 0 0 2 0;
#X connect 2 0 3 0;
#X connect 3 0 1 0;
#X connect 3 1 1 0;
#X connect 3 2 1 0;
#X connect 3 3 1 0;
#X connect 3 4 1 0;
