#N canvas 705 116 450 300 10;
#X obj 21 19 loadbang;
#X msg 21 71 hello;
#X msg 254 71 one 11 42;
#X msg 174 71 11 one two;
#X msg 101 71 a 1 2 3 4;
#X obj 21 40 t b b b b b;
#X msg 64 71 13;
#X obj 21 101 unpack s f 0 wookie f;
#X obj 258 128 print a;
#X obj 198 128 print b;
#X obj 138 128 print c;
#X obj 78 128 print d;
#X obj 21 128 print e;
#X connect 0 0 5 0;
#X connect 1 0 7 0;
#X connect 2 0 7 0;
#X connect 3 0 7 0;
#X connect 4 0 7 0;
#X connect 5 0 1 0;
#X connect 5 1 6 0;
#X connect 5 2 4 0;
#X connect 5 3 3 0;
#X connect 5 4 2 0;
#X connect 6 0 7 0;
#X connect 7 0 12 0;
#X connect 7 1 11 0;
#X connect 7 2 10 0;
#X connect 7 3 9 0;
#X connect 7 4 8 0;
