#N canvas -588 31 340 300 12;
#X obj 7 137 print;
#X obj 61 28 bng 15 250 50 0 empty empty empty 17 7 0 10 -262144 -1
-1;
#X obj 7 27 r test;
#X obj 6 5 loadbang;
#X msg 7 77 -1;
#X msg 42 76 0;
#X obj 7 52 t b b b b b b;
#X msg 75 76 1.45;
#X msg 117 75 -1.45;
#X obj 7 112 wrap;
#X msg 171 74 2.457;
#X msg 223 74 -2.457;
#X connect 1 0 6 0;
#X connect 2 0 6 0;
#X connect 3 0 6 0;
#X connect 4 0 9 0;
#X connect 5 0 9 0;
#X connect 6 0 4 0;
#X connect 6 1 5 0;
#X connect 6 2 7 0;
#X connect 6 3 8 0;
#X connect 6 4 10 0;
#X connect 6 5 11 0;
#X connect 7 0 9 0;
#X connect 8 0 9 0;
#X connect 9 0 0 0;
#X connect 10 0 9 0;
#X connect 11 0 9 0;
