#N canvas 125 186 1315 581 10;
#X obj 114 194 osc~ 220;
#X obj 153 229 *~;
#X obj 382 465 dac~;
#X obj 5 254 *~ 1;
#X obj 174 193 line~;
#X obj 212 139 del 10;
#X msg 212 161 0 300;
#X msg 176 161 1 10;
#X obj 435 194 osc~ 220;
#X obj 477 226 *~;
#X obj 329 251 *~ 1;
#X obj 496 194 line~;
#X obj 534 140 del 10;
#X msg 534 162 0 300;
#X msg 498 162 1 10;
#X obj 741 196 osc~ 220;
#X obj 782 229 *~;
#X obj 634 254 *~ 1;
#X obj 801 196 line~;
#X obj 839 142 del 10;
#X msg 839 164 0 300;
#X msg 803 164 1 10;
#X obj 77 289 *~ 1;
#X obj 408 284 *~ 1;
#X obj 717 286 *~ 1;
#X obj 395 427 *~ 0.05;
#X obj 5 232 delread~ \$0-LOOP1 20;
#X obj 329 229 delread~ \$0-LOOP2 20;
#X obj 634 232 delread~ \$0-LOOP3 20;
#X obj 102 322 delwrite~ \$0-LOOP1 100;
#X obj 430 314 delwrite~ \$0-LOOP2 100;
#X obj 733 315 delwrite~ \$0-LOOP3 100;
#X obj 5 210 r \$0-DEL1;
#X obj 26 188 r \$0-VOL1;
#X obj 350 185 r \$0-VOL2;
#X obj 329 207 r \$0-DEL2;
#X obj 203 115 r \$0-EXCITE1;
#X obj 529 115 r \$0-EXCITE2;
#X obj 830 117 r \$0-EXCITE3;
#X obj 1045 198 osc~ 220;
#X obj 1086 231 *~;
#X obj 938 256 *~ 1;
#X obj 1105 198 line~;
#X obj 1143 144 del 10;
#X msg 1143 166 0 300;
#X msg 1107 166 1 10;
#X obj 1021 288 *~ 1;
#X obj 1135 119 r \$0-EXCITE4;
#X obj 959 191 r \$0-VOL4;
#X obj 938 213 r \$0-DEL4;
#X obj 938 234 delread~ \$0-LOOP4 20;
#X obj 1037 317 delwrite~ \$0-LOOP4 100;
#X obj 655 189 r \$0-VOL3;
#X obj 634 211 r \$0-DEL3;
#X connect 0 0 1 0;
#X connect 1 0 22 0;
#X connect 3 0 22 0;
#X connect 4 0 1 1;
#X connect 5 0 6 0;
#X connect 6 0 4 0;
#X connect 7 0 4 0;
#X connect 8 0 9 0;
#X connect 9 0 23 0;
#X connect 10 0 23 0;
#X connect 11 0 9 1;
#X connect 12 0 13 0;
#X connect 13 0 11 0;
#X connect 14 0 11 0;
#X connect 15 0 16 0;
#X connect 16 0 24 0;
#X connect 17 0 24 0;
#X connect 18 0 16 1;
#X connect 19 0 20 0;
#X connect 20 0 18 0;
#X connect 21 0 18 0;
#X connect 22 0 25 0;
#X connect 22 0 29 0;
#X connect 23 0 25 0;
#X connect 23 0 30 0;
#X connect 24 0 25 0;
#X connect 24 0 31 0;
#X connect 25 0 2 0;
#X connect 25 0 2 1;
#X connect 26 0 3 0;
#X connect 27 0 10 0;
#X connect 28 0 17 0;
#X connect 32 0 26 0;
#X connect 33 0 3 1;
#X connect 34 0 10 1;
#X connect 35 0 27 0;
#X connect 36 0 5 0;
#X connect 36 0 7 0;
#X connect 37 0 12 0;
#X connect 37 0 14 0;
#X connect 38 0 19 0;
#X connect 38 0 21 0;
#X connect 39 0 40 0;
#X connect 40 0 46 0;
#X connect 41 0 46 0;
#X connect 42 0 40 1;
#X connect 43 0 44 0;
#X connect 44 0 42 0;
#X connect 45 0 42 0;
#X connect 46 0 51 0;
#X connect 46 0 25 0;
#X connect 47 0 43 0;
#X connect 47 0 45 0;
#X connect 48 0 41 1;
#X connect 49 0 50 0;
#X connect 50 0 41 0;
#X connect 52 0 17 1;
#X connect 53 0 28 0;
