#N canvas 314 207 951 636 10;
#X obj 74 99 dac~;
#N canvas 468 177 450 300 source 0;
#X obj 63 35 r freq;
#X obj 63 125 outlet~;
#X obj 121 89 osc~;
#X obj 121 35 r freq;
#X obj 122 125 outlet~;
#X obj 121 63 * 1.5;
#X obj 63 71 osc~;
#X connect 0 0 6 0;
#X connect 2 0 4 0;
#X connect 3 0 5 0;
#X connect 5 0 2 0;
#X connect 6 0 1 0;
#X restore 52 27 pd source;
#N canvas 504 255 450 300 AMleft 1;
#X obj 37 94 inlet~;
#X obj 57 153 outlet~;
#X obj 88 94 osc~ 10;
#X obj 56 126 *~;
#X connect 0 0 3 0;
#X connect 2 0 3 1;
#X connect 3 0 1 0;
#X restore 48 61 pd AMleft;
#N canvas 502 260 450 300 AMright 0;
#X obj 36 47 inlet~;
#X obj 56 106 outlet~;
#X obj 87 47 osc~ 10;
#X obj 55 79 *~;
#X connect 0 0 3 0;
#X connect 2 0 3 1;
#X connect 3 0 1 0;
#X restore 112 61 pd AMright;
#X connect 1 0 2 0;
#X connect 1 1 3 0;
#X connect 2 0 0 0;
#X connect 3 0 0 1;
