#N canvas 293 123 951 636 10;
#X obj 74 99 dac~;
#N canvas 510 245 450 300 oscL 0;
#X obj 52 61 osc~;
#X obj 52 25 r freq;
#X obj 53 97 outlet~;
#X connect 0 0 2 0;
#X connect 1 0 0 0;
#X restore 52 61 pd oscL;
#N canvas 507 250 450 300 oscR 0;
#X obj 52 79 osc~;
#X obj 52 25 r freq;
#X obj 53 115 outlet~;
#X obj 52 53 * 1.5;
#X connect 0 0 2 0;
#X connect 1 0 3 0;
#X connect 3 0 0 0;
#X restore 112 61 pd oscR;
#X connect 1 0 0 0;
#X connect 2 0 0 1;
