#N canvas 308 161 450 368 10;
#X obj 158 16 r x1;
#X obj 199 15 r y1;
#X obj 18 16 osc~ 220;
#X obj 161 180 dac~;
#X obj 158 47 osc~;
#X obj 199 48 osc~;
#X obj 177 84 *~;
#X obj 81 17 r radius;
#X obj 162 139 +~;
#X obj 66 88 *~;
#X obj 177 114 *~ 0.25;
#X obj 18 51 *~ 0.1;
#X connect 0 0 4 0;
#X connect 1 0 5 0;
#X connect 2 0 11 0;
#X connect 4 0 6 0;
#X connect 5 0 6 1;
#X connect 6 0 10 0;
#X connect 7 0 9 1;
#X connect 8 0 3 0;
#X connect 8 0 3 1;
#X connect 9 0 8 0;
#X connect 10 0 8 1;
#X connect 11 0 9 0;
