#N canvas 308 161 450 368 10;
#X obj 158 16 r x1;
#X obj 199 15 r y1;
#X obj 23 86 osc~ 220;
#X obj 129 209 dac~;
#X obj 158 47 osc~;
#X obj 199 48 osc~;
#X obj 177 84 *~;
#X obj 81 17 r radius;
#X obj 128 163 +~;
#X obj 65 133 *~;
#X obj 177 114 *~ 0.25;
#X obj 23 106 *~ 0.1;
#X obj 81 41 t f b;
#X obj 81 105 line~;
#X obj 81 83 pack f f;
#X msg 108 61 300;
#X obj 129 186 *~ 0.2;
#X connect 0 0 4 0;
#X connect 1 0 5 0;
#X connect 2 0 11 0;
#X connect 4 0 6 0;
#X connect 5 0 6 1;
#X connect 6 0 10 0;
#X connect 7 0 12 0;
#X connect 8 0 16 0;
#X connect 9 0 8 0;
#X connect 10 0 8 1;
#X connect 11 0 9 0;
#X connect 12 0 14 0;
#X connect 12 1 15 0;
#X connect 13 0 9 1;
#X connect 14 0 13 0;
#X connect 15 0 14 1;
#X connect 16 0 3 0;
#X connect 16 0 3 1;
